<svg id="Calque_1" data-name="Calque 1" xmlns="http://www.w3.org/2000/svg" viewBox="0 0 526 529"><defs><style>.cls-1{fill:#616161;}.cls-2{fill:#d9d9d9;}.cls-3{fill:#a8a8a8;}.cls-4{fill:#767676;}.cls-5{fill:#b2b2b2;}.cls-6{fill:#8b8b8b;}.cls-7{fill:#bdbdbd;}.cls-8{fill:#7e7e7e;}.cls-9{fill:#cdcdcd;}.cls-10{fill:#6e6e6e;}.cls-11{fill:#737373;}.cls-12{fill:#b3b3b3;}.cls-13{fill:#c3c3c3;}.cls-14{fill:#868686;}.cls-15{fill:#d2d2d2;}.cls-16{fill:#929292;}.cls-17{fill:#d6d6d6;}.cls-18{fill:#bababa;}.cls-19{fill:#9c9c9c;}.cls-20{fill:#ccc;}.cls-21{fill:#c8c8c8;}.cls-22{fill:#646464;}.cls-23{fill:#939393;}.cls-24{fill:#959595;}.cls-25{fill:#aaa;}.cls-26{fill:#a6a6a6;}.cls-27{fill:#9e9e9e;}.cls-28{fill:#c2c2c2;}.cls-29{fill:#b6b6b6;}.cls-30{fill:#666;}.cls-31{fill:#5e5e5e;}.cls-32{fill:#797979;}.cls-33{fill:#818181;}.cls-34{fill:#999;}.cls-35{fill:#1b1b1b;}.cls-36{fill:#181818;}.cls-37{fill:#2c2c2c;}.cls-38{fill:#1c1c1c;}.cls-39{fill:#6a6a6a;}.cls-40{fill:#7d7d7d;}.cls-41{fill:#828282;}.cls-42{fill:#2a2a2a;}.cls-43{fill:#e0e0e0;}.cls-44{fill:#232323;}.cls-45{fill:#575757;}.cls-46{fill:#a7a7a7;}.cls-47{fill:#d3d3d3;}.cls-48{fill:#c7c7c7;}.cls-49{fill:#989898;}.cls-50{fill:#1d1d1d;}.cls-51{fill:#1e1e1e;}.cls-52{fill:#1f1f1f;}.cls-53{fill:#202020;}.cls-54{fill:#272727;}.cls-55{fill:#212121;}.cls-56{fill:#222;}.cls-57{fill:#282828;}.cls-58{fill:#242424;}.cls-59{fill:#262626;}.cls-60{fill:#252525;}.cls-61{fill:#292929;}.cls-62{fill:#10a410;}.cls-63{fill:#00f800;}.cls-64{fill:#0ea30e;}.cls-65{fill:#282128;}.cls-66{fill:#2a232a;}.cls-67{fill:#251e25;}.cls-68{fill:#282928;}.cls-69{fill:#292229;}.cls-70{fill:#272227;}</style></defs><path class="cls-1" d="M513.25,468.75c-2.48,10.24-11.09,17.24-22.17,18-1.14.08-2.28,0-3.42,0q-224.9,0-449.8.12c-12.09,0-24.71-7.49-26.59-20.54a3.22,3.22,0,0,1,1.43-1.85,5.09,5.09,0,0,1,3.89.12c2-.23.71,3.43,3.16,2.61,3.64,3.21,5.71,8.22,11,9.53a4.69,4.69,0,0,1,1.22,1,2.77,2.77,0,0,0,1.28,1,87.64,87.64,0,0,1,9.15-.28H483c3,0,6.09-.06,9.08.18a4,4,0,0,0,1.32-.93,11.14,11.14,0,0,1,2.57-2c4.1-2.65,7.35-6,8.65-10.86q.15-78.41.14-156.76c.45-10.84-.83-21.72.7-32.54a2,2,0,0,1,1.69-1.17,3.5,3.5,0,0,1,1.71,2.6c.42,3.48.16,7,.27,10.49q0,7.89,0,15.79c0,5.71-.15,11.42.12,17.12.13,8.67-.31,17.33-.12,26,0,5.74-.12,11.48.09,17.22-.07,5.73-.24,11.45,0,17.18,0,6.46-.29,12.93,0,19.39-.05,7.2-.21,14.4-.11,21.6,0,6.44-.11,12.87.08,19.3-.09,5.84-.14,11.68-.08,17.51-.13,3.09.15,5.89,3.61,7.33C513.83,466.36,514,467.63,513.25,468.75Z"/><path class="cls-2" d="M15.74,53.27C21.15,45.49,29.09,43,38,43Q190.57,43,343.14,43q72.44,0,144.87.05c8.69,0,16.45,2.59,21.69,10.21-1.74,2.07-4.17,3-6.56,4-3.37-.28-5.54-3.06-8.54-4.12a10.4,10.4,0,0,1-1.44-.93,5.52,5.52,0,0,0-1.7-.75c-9.34-.16-18.66,0-28,0q-213,0-426,0c-1.14,0-2.28,0-3.39.09a5.3,5.3,0,0,0-1.65.73,12,12,0,0,1-1.46.88c-3,1.16-5.42,3.44-8.67,4C19.88,56.28,17.49,55.33,15.74,53.27Z"/><path class="cls-3" d="M514.22,201.71v30.81c-.9,2.39-.34,4.86-.41,7.29-.07,2.64-.19,4.9-2.18,7.25-2.73,3.23-.83,7.68-1.45,11.56a5,5,0,0,1-1.53,3.71,1.61,1.61,0,0,1-1.81-.77c-1.83-9.87-.76-19.81-.62-29.73,1-2.91.87-5.94.86-9,0-3.95-.31-7.91,3.22-10.93,1.51-1.29,1-3.51,1.33-5.35S511.28,202.22,514.22,201.71Z"/><path class="cls-4" d="M11.24,377.42V351.19c3.26,1,2.46,3.8,2.61,6.05.33,5-.33,9.75,3.49,14.3,2.82,3.36.18,8.85,1.89,13.16,0,9.62,1.43,19.27-.82,28.82-3.93.74-2.65-2.56-3.21-4.29C11.82,398.89,11.31,388.18,11.24,377.42Z"/><path class="cls-5" d="M11.22,199.42q0-12.55,0-25.1c2.86,4.93,7.12,9.15,7.2,15.45.06,5.27-.73,10.59.83,15.79,0,9.61,1.46,19.26-.86,28.8-4,.22-2.74-2.93-3.19-5-.16-3,0-6-.07-9,0-1.31.45-3-.29-3.87C10.57,211.38,12.16,205.15,11.22,199.42Z"/><path class="cls-6" d="M507.54,346.55l0-26.25c1.17-2.5.4-5.16.56-7.74.24-3.81-.77-7.71,2.68-11,1.52-1.44.59-4.34.86-6.57.24-2-.49-4.69,2.58-5.45V317c-1,4.4-.05,8.88-.53,13.3-5,3.48-3,8.81-3.59,13.48a5.49,5.49,0,0,1-.91,2.56A1.16,1.16,0,0,1,507.54,346.55Z"/><path class="cls-7" d="M17.81,205c-2.25-5-.47-10.31-1-15.45-.28-2.59,1-5.81-3.25-6.56-1.58-.28-1.19-2.09-1.33-3.36-.19-1.79.62-3.79-1-5.31q0-13.71,0-27.41c2.18,0,2.33,1.77,2.34,3.09a9,9,0,0,0,4,7.5c1.49,3.9.57,8,.85,12,.12,4.08-.5,8.21.84,12.21.57,6,.25,12.09.25,18.14C19.48,201.68,19.5,203.64,17.81,205Z"/><path class="cls-8" d="M17.87,384.2c-1.68-1.49-.86-3.5-1.1-5.3-.43-3.35,1.74-7.64-3.75-9.16-1.35-.38-.66-2.72-.81-4.18-.48-4.78,1.08-9.7-1-14.37V326.08c3.58,1.39,2.47,4.61,2.62,7.19.23,4.1-.39,8.23,3.35,11.43,1.6,1.37,1.09,3.89,1.15,5.95.09,3.38-.3,6.79.87,10.08.55,6.06.24,12.14.25,18.21C19.48,380.83,19.51,382.79,17.87,384.2Z"/><path class="cls-9" d="M11.17,120.66q0-17.13,0-34.25C13,86.25,13.4,87.77,13.44,89c.09,3.16,2,5.15,4.07,7.09,1.51,3.94.59,8.05.88,12.08-.45,5.57,1,11.25-1,16.72C12.41,126.87,12.38,126.85,11.17,120.66Z"/><path class="cls-10" d="M11.24,377.42c2.08,5.45.49,11.11,1,16.65.18,2.19-.46,4.56,2.84,5.19,2.26.44,1.53,2.63,1.75,4.22.47,3.45-1.12,7.12,1.08,10.38,1.79,1.58,1.68,3.75,1.6,5.79-.24,6.57.86,13.19-.7,19.71a1.49,1.49,0,0,1-1.63.91c-3-2.68-1.83-6.27-2-9.51-.12-3.44-.1-6.79-3.33-9-.7-6.39.45-12.83-.62-19.21Z"/><path class="cls-11" d="M507.55,421.84V400.16c-1-11,5.55-21,4.14-32.07a6.63,6.63,0,0,1,.85-2.78,1.2,1.2,0,0,1,1.66-.48V398c-1.11,2.66.28,5.59-.88,8.24-3.26,2-2.88,5.36-3.13,8.56C510,417.31,511.33,420.59,507.55,421.84Z"/><path class="cls-12" d="M514.22,201.71c-1.69,1.73-.79,3.9-1,5.88-.27,2.76,1.12,6.06-3.37,7.1-1.91.44-1,2.91-1.2,4.5-.55,4,1.15,8.2-1,12.06-2.78-3.08-1.51-6.85-1.65-10.33a71.81,71.81,0,0,1,.24-11.91c1.91-5.19-.18-10.8,1.63-16,2-1.91,4.11-3.75,4.15-7,0-1.19.36-2.72,2.24-2.61Q514.23,192.57,514.22,201.71Z"/><path class="cls-13" d="M11.17,120.66c1.2,2.33,1.7,5.54,5.61,4.5,2.36,2.51,1.4,5.64,1.55,8.54a24,24,0,0,0,.86,6.63c.19,9.6,1.19,19.22-.57,28.78a1.33,1.33,0,0,1-1.83.56q0-6.28,0-12.55c-2-7.17-5.82-13.89-5.6-21.64Z"/><path class="cls-14" d="M17.87,360.24c-2-2.28-.71-5-1.09-7.56-.5-3.33,1.78-7.66-3.74-9.17-1.36-.38-.66-2.72-.83-4.18-.49-4.4,1.11-9-1-13.25V308.9a1.13,1.13,0,0,1,1.59.45c1.19,2.29.88,4.78.93,7.22-.84,3.65,1.63,5.65,3.88,7.77,1.63,4.81-.2,10,1.58,14.76.54,5.29.26,10.6.26,15.9C19.48,356.88,19.51,358.83,17.87,360.24Z"/><path class="cls-15" d="M514.29,65.86V91c-.85,1.36-.54,2.89-.49,4.34.16,4.08-1.38,5.61-5.36,3.85a5.15,5.15,0,0,1-1.22-2.86c0-6.9-.85-13.82.53-20.68,2-2.1,4.23-4,4.26-7.3C512,67.16,512.48,65.7,514.29,65.86Z"/><path class="cls-13" d="M514.26,125.22q0,12.57,0,25.12c-.87,1.77-.49,3.66-.44,5.49.11,4.08-1.43,5.59-5.39,3.82-1.45-1.76-1.26-3.9-1.35-6,0-3.19,0-6.4,0-9.6,0-4-.31-7.92,3.22-10.92C512.67,131.14,510.21,126.53,514.26,125.22Z"/><path class="cls-16" d="M11.24,291.84V271.25L12,271a2.79,2.79,0,0,1,1.08,1.25,14,14,0,0,1,.56,4.12c.23,4.05-1.29,8.82,4.39,10.65a3.21,3.21,0,0,1,.53,1.69c-.25,4.69-.78,9.38.59,14,.21,6.08,1.09,12.18-.52,18.21a1.61,1.61,0,0,1-1.67.85c-1.49-1.08-1.61-2.71-1.72-4.34-.21-3.87,1-8.18-3.36-10.77a19.21,19.21,0,0,1-.25-4.54C11.44,298.67,12.14,295.22,11.24,291.84Z"/><path class="cls-17" d="M514.29,65.86c-1.55,1.31-1.17,3.13-1,4.73.34,3.57-1.32,4.76-4.61,4.36-2.19-2.57-1.37-5.48-1-8.34.06-.44,0-.79-.17-.82s-.29.2-.44.31a2.28,2.28,0,0,1-1.28-.69c-1.23-2.81-3.45-5.27-3.1-8.64a11.72,11.72,0,0,1,7-3.5C512.23,57.1,514.49,61,514.29,65.86Z"/><path class="cls-17" d="M15.74,53.27c2.54.5,5,1.16,6.63,3.41,1,3.27-1.3,5.44-2.68,7.92-.36.35-.75.67-1.13,1-1.29,3.23,1.17,7.3-2.26,10-3.39,1-4.77-.39-4.68-3.84.05-2,.52-4-.47-5.94C11,61,13.19,57.1,15.74,53.27Z"/><path class="cls-18" d="M508.66,159.4c3.26.39,4.94-.75,4.61-4.33-.15-1.59-.54-3.41,1-4.73q0,10.85,0,21.68c-.91,2.18-.44,4.47-.43,6.7,0,4.22-1.63,5.56-5.54,3.6-2.26-7-1.09-14.08-.81-21.15A4,4,0,0,1,508.66,159.4Z"/><path class="cls-19" d="M11.23,258.75V240.51c3,.5,2.39,3,2.41,4.81a7.35,7.35,0,0,0,3.63,6.44,5.89,5.89,0,0,1,.79,1.75c.92,5.6-.56,11.35,1.13,16.91.12,5.17,1.37,10.41-.87,15.45-2.19.92-2.39-.91-2.76-2.17a21.6,21.6,0,0,1-.42-6.52c.56-2.73-.94-4.45-2.91-5.94h0C10.74,267.16,12.51,262.83,11.23,258.75Z"/><path class="cls-20" d="M508.66,98.91c3.28.4,5-.76,4.59-4.34-.15-1.28-.19-2.66,1-3.6q0,10.85,0,21.69c-.88,1.59-.24,3.34-.54,5-.66,3.63-2.41,5-5.78,2.51C506.89,113,505.72,105.9,508.66,98.91Z"/><path class="cls-15" d="M11.15,65.86c1.55,1.31,1.17,3.13,1,4.73-.34,3.57,1.31,4.76,4.61,4.36,2.79,6.49,1.79,13.12.74,19.76l-.74.78c-3.29.4-5-.78-4.61-4.36.15-1.59.53-3.42-1-4.72Z"/><path class="cls-21" d="M508.65,120.59c6.54.66,3.23-5.65,5.62-7.93q0,6.28,0,12.56c-1.65,1.54-.84,3.55-1,5.37-.12,1.12.22,3-.32,3.27-7.92,4.35-2.77,11.75-4.23,17.56a9.55,9.55,0,0,0,0,2.27,1.28,1.28,0,0,1-1.79-.52c-1.8-7.94-.81-16-.62-24C507.53,126.48,506.3,123,508.65,120.59Z"/><path class="cls-22" d="M513.25,468.75c-.32-.64-.64-1.84-1-1.84-5.45-.06-4.89-3.84-4.73-7.41,1.2-3.82.43-7.73.52-11.6s1.61-5.11,5.22-3.46c1.37,6.87-.32,13.88.88,20.76A3.66,3.66,0,0,1,513.25,468.75Z"/><path class="cls-23" d="M514.2,289.57c-1.91,2.53-.65,5.44-1,8.17s1.1,6.07-3.4,7.11c-1.89.44-1,2.94-1.19,4.54-.5,3.62,1.14,7.47-1.13,10.91q0-8.55,0-17.1c1.26-2.69.39-5.54.57-8.3.2-3.1-.54-6.22,2.41-8.8,1.69-1.48.85-4.27,1.11-6.49s-.67-5.07,2.6-6Z"/><path class="cls-24" d="M514.2,273.58c-1.9,2.54-.65,5.45-1,8.18s1.12,6.13-3.41,7.09c-1.7.36-1,2.57-1.18,4-.49,3.43,1.16,7.11-1.14,10.35q0-8,0-16c1.31-3.34.27-6.83.61-10.23.22-1.53-.59-3.08.12-4.6,2.14-1.64,3.54-3.57,3.56-6.52,0-1.8-.51-4.32,2.43-4.84Q514.21,267.31,514.2,273.58Z"/><path class="cls-25" d="M11.22,199.42c1.84,2.14.75,4.71,1,7.08s-.62,5,3,5.67c2,.36,1.53,2.35,1.55,3.8,0,4.34,0,8.69,0,13a3.61,3.61,0,0,1-4.6.31c-1.36-3.4.28-7.09-1-10.51Z"/><path class="cls-26" d="M11.22,218.81c2,3.23.53,6.81,1,10.2,3.68,5.32,7.53,10.55,6.16,17.67-.35,1.8,0,3.76-1.6,5.16-3.27.39-4.81-.77-4.65-4.34.11-2.31.93-4.88-.91-7Z"/><path class="cls-27" d="M508.65,258.68c0-3,0-6,0-9.06,0-.94-.18-2.57.19-2.72,7.14-2.86,2.65-10,5.35-14.38v14.81c-.9,2.7-.36,5.48-.4,8.22C513.75,259.49,512.19,260.62,508.65,258.68Z"/><path class="cls-27" d="M508.65,258.68c3.28.4,4.82-.76,4.65-4.34-.11-2.32-.91-4.88.91-7V261c-1.82,2.12-1,4.69-.91,7,.17,3.57-1.37,4.73-4.64,4.34-2.35-3.42-2.14-6.85,0-10.28Z"/><path class="cls-28" d="M11.18,135.48c1.75,1.73.77,3.94,1,5.93.15,1.11,0,3,.52,3.2,6.7,2.53,3.18,8.21,4,12.51-3.28.39-4.88-.77-4.63-4.35.13-1.94.77-4.15-1-5.86Z"/><path class="cls-29" d="M508.66,182.22c3.27.4,4.88-.76,4.63-4.34-.13-1.94-.77-4.15,1-5.86q0,5.7,0,11.41c-1.49,1.33-1.11,3.14-1,4.73.34,3.59-1.35,4.73-4.61,4.33-2.28-2.62-1.52-5.65-1.15-8.63A3.59,3.59,0,0,1,508.66,182.22Z"/><path class="cls-22" d="M513.22,405.9c.4-2.63-.91-5.47,1-7.92v42.17a1.3,1.3,0,0,1-1.74-.68c-1.78-5.49-.67-11.14-.89-16.72C511.93,417.12,510,411.25,513.22,405.9Z"/><path class="cls-30" d="M11.24,402.53c2.1,6.36.44,12.91,1,19.35,2.57,4.22,2,8.62.75,13.06a1.28,1.28,0,0,1-1.73.64Z"/><path class="cls-31" d="M11.24,435.58h1c1.47,1.31,1.51,3.09,1.6,4.86.22,4.85.15,9.71.06,14.56-.07,3.5.79,7.14-1.65,10.25l-1,1.11Z"/><path class="cls-31" d="M513.22,440.14h1l0,25.05c-2.13-6.75-.36-13.68-.94-20.5C512.09,443.18,511.84,441.66,513.22,440.14Z"/><path class="cls-32" d="M514.2,364.83h-1c-2.65-3.33-1.45-7.22-1.62-10.92,0-2.94-.07-5.89.08-8.83a7.93,7.93,0,0,1,.89-3.74,1.15,1.15,0,0,1,1.63-.46Z"/><path class="cls-33" d="M514.2,340.87h-1c-2.45-3.43-2.23-6.86,0-10.28.5-4.53-1.06-9.21,1-13.62Z"/><path class="cls-34" d="M11.23,258.75c2.13,4,.46,8.34,1,12.49h-1Q11.24,265,11.23,258.75Z"/><path class="cls-6" d="M11.24,291.84c2,3.24.52,6.82,1,10.21-.33.51-.66.51-1,0Z"/><path class="cls-6" d="M11.24,302.05h1v4.56a1.6,1.6,0,0,1,0,2.29h-1Z"/><path class="cls-35" d="M506.13,307.76q.15,77.85.3,155.68c0,1.51.11,3.08-1.15,4.26-3.62-3.22-8.07-2.88-12.43-2.88q-127.22,0-254.42,0H27.93c-9.21,0-9.32-.06-9.33-9.12,0-8.7-.28-17.42,1.32-26.05,3.28-2.24,7-1.35,10.54-1.36q209.37-.06,418.73,0,23.1,0,46.21,0c2.26,0,4.57.32,6.74-.58a3.15,3.15,0,0,0,1-1.65c1-8.09,0-16.21.47-24.3,0-.7,0-1.4,0-2.1q-.27-12.27,0-24.55c-.18-7.9-.21-15.8,0-23.7-.13-7.41-.16-14.82,0-22.22,0-.69,0-1.38,0-2.07.29-6.1-.9-12.28.86-18.31A1.93,1.93,0,0,1,506.13,307.76Z"/><path class="cls-35" d="M20.21,429.87c0,9.88.06,19.77-.05,29.65,0,2.77.4,3.6,3.69,3.59q180.21-.24,360.42-.14,57.27,0,114.53,0c3.42,0,6.76-.17,6.48,4.75-2,4-4.62,7.43-9,9a27.83,27.83,0,0,1-10.6,1.59q-223.06,0-446.15,0c-3,0-6-.72-9-.57-6.2-.74-8.35-6-11.42-10.24C15.9,459,17.63,450.29,18,441.67c.08-2.2.55-4.47.55-6.73,0-30.37.37-60.74-.17-91.1-.21-11.56.25-23.08.19-34.62a1.46,1.46,0,0,1,1.06-1.66A2.93,2.93,0,0,1,21.13,309c1.48,5.87.56,11.85.71,17.79,0,.7,0,1.4,0,2.1.18,7.4.17,14.79,0,22.18.13,7.39.17,14.78,0,22.18,0,.69,0,1.38,0,2.08.14,7.55.08,15.11,0,22.66,0,.68-.05,1.36-.06,2s0,1.35,0,2c.05,8.05.18,16.11-.07,24.16a8.35,8.35,0,0,1-.44,2A9.45,9.45,0,0,1,20.21,429.87Z"/><path class="cls-22" d="M493.8,478.94c.19,0,.43,0,.55.11a3.69,3.69,0,0,1,.5.72c-1.46.1-2.92.3-4.38.3q-227.75,0-455.51,0c-1.33,0-2.66,0-4,0a.49.49,0,0,1-.37-.29c-.1-.81.58-.69,1-.83,2-1.58,4.35-1.12,6.59-1.12q224.49,0,449,0C489.44,477.82,491.81,477.36,493.8,478.94Z"/><path class="cls-36" d="M30.49,477.76c1.52-1.71,3.55-1.07,5.37-1.07q230.19,0,460.37,0a2.28,2.28,0,0,1-2.24,1.21c-2,.82-4.14.41-6.21.42q-225.06,0-450.13,0c-2.06,0-4.18.4-6.2-.42A2.12,2.12,0,0,1,30.49,477.76Z"/><path class="cls-37" d="M31.45,477.92c1.33,0,2.66-.11,4-.11H490c1.33,0,2.66.07,4,.11a7,7,0,0,0-.19,1H31.63A7,7,0,0,0,31.45,477.92Z"/><path class="cls-22" d="M19.3,307.76q-.16,73-.33,146.07c0,4.56.06,9.13.1,13.69-2,.53-1.53-1.51-2.29-2.27-.05-.31-.11-.61-.17-.92-.39-3.43-.1-6.88-.27-10.32.56-4.63-1.36-9.53,1.54-13.89q0-13.12,0-26.26,0-14.82,0-29.66c0-8,0-16,0-24q0-10.85,0-21.69a56.67,56.67,0,0,1,0-17.1q0-9.7,0-19.4a34.26,34.26,0,0,1,0-13.72,4.58,4.58,0,0,0,0-1.11c-.41-.25-.55-.5-.42-.76s.27-.39.4-.39l0-15.95c-1-4.19-.73-8.4-.18-12.62a1.46,1.46,0,0,1,1.91.54c1.16,1.9,1,4,1,6.11q.06,18.54,0,37.08C20.64,303.47,21,305.84,19.3,307.76Z"/><path class="cls-24" d="M507.57,128.54l0,25.15c1,2.37.26,4.85.48,7.27v22.46c-.28,8.32.57,16.66-.46,25q0,11.43,0,22.86,0,15.39,0,30.8a31.6,31.6,0,0,1-.17,12.74c-.3-.07-.59-.15-.88-.24-2.63-2.44-1.76-5.67-1.76-8.59q-.1-68.56-.06-137.13c.06-18.15,0-36.31.05-54.47,0-2.61-.42-5.32.95-7.78l.84-.75a5,5,0,0,1,.86.13c1.39,10.19.25,20.44.63,30.65C507.76,107.25,508.69,117.91,507.57,128.54Z"/><path class="cls-38" d="M506.15,128.61q.17,63.84.32,127.7,0,9.12.09,18.24-.21,16.6-.43,33.21h-.9l-.69-.74c-1.89-6.24-.61-12.64-.93-19,0-.67,0-1.34,0-2,0-1,0-2,0-3q-.21-8.76,0-17.52c-.14-6.62-.18-13.24,0-19.86,0-1,0-2.07,0-3.11q-.18-7.2,0-14.41c-.1-1.74-.05-3.48,0-5.22-.21-7.09-.18-14.18,0-21.27-.18-7.53-.2-15.05,0-22.57-.12-7.06-.17-14.12,0-21.18,0-.69,0-1.38,0-2.08,0-8.19-.31-16.4.18-24.59a6.1,6.1,0,0,1,.67-1.95A1.27,1.27,0,0,1,506.15,128.61Z"/><path class="cls-39" d="M513.22,440.14v4.56c-3.34-.41-4.66.87-4.67,4.41s1.24,7.13-1,10.39q0-9.12,0-18.25c1.18-5,.38-10,.51-15,.11-3.93,1.52-5.21,5.16-3.25Z"/><path class="cls-32" d="M513.22,367.1c0,4.17,0,8.34,0,12.52,0,2.56.69,5.3-3.19,6.16-2.08.47-1.13,2.89-1.37,4.48-.49,3.29,1.16,6.81-1.1,9.9v-19.4c1.17-3.43.42-7,.51-10.46C508.16,366.36,509.62,365.14,513.22,367.1Z"/><path class="cls-10" d="M513.22,423c-3.35-.41-4.59.89-4.68,4.42-.1,4.59,1.32,9.36-1,13.81V421.84c2.25-3.66,1-7.7,1-11.53,0-3.55,1.33-4.82,4.67-4.41Z"/><path class="cls-40" d="M513.22,367.1c-3.34-.41-4.7.85-4.67,4.4,0,3.07,1.22,6.4-1,9.26q0-8.55,0-17.11c1.48-3.39-.29-7.11,1-10.52a3.62,3.62,0,0,1,4.64.27v13.7Z"/><path class="cls-22" d="M12.22,465.25V455a3.64,3.64,0,0,1,4.32-.52,2,2,0,0,1,.78,1.61c-.25,3.05.61,6.17-.54,9.18H12.22Z"/><path class="cls-41" d="M508.66,353.41c-.51,3.4,1.12,7-1.12,10.24v-17.1h1.11C510.63,348.84,510.35,351.12,508.66,353.41Z"/><path class="cls-27" d="M507.44,274.79q.09-6.37.17-12.74c.35,0,.69.05,1,.05,0,3.43,0,6.86,0,10.28v4.56c-.4.52-.79.52-1.18,0C507.47,276.23,507.45,275.51,507.44,274.79Z"/><path class="cls-27" d="M507.48,276.94h1.18c-.51,3.42,1.15,7.08-1.17,10.29C507.49,283.8,507.48,280.37,507.48,276.94Z"/><path class="cls-42" d="M19,64.62l3.42-7.94c2.64-1.61,4.84-4,8.14-4.44,4.69-.78,9.41-.59,14.13-.59H480.8c4.72,0,9.45-.19,14.13.59,3.33.25,5.32,2.8,7.78,4.53,1.76,2.82,3.63,5.59,3.87,9.06h-.49c-.69,9.92-.09,19.86-.33,29.79-.05,2,.62,4.14-.69,6-2.35,1.67-5.08,1.41-7.71,1.41q-134.36,0-268.71,0a22.73,22.73,0,0,1-8.39-1.27c-19.81-.18-39.62.09-59.43-.1,19.57.14,39.14,0,58.71.11a2.73,2.73,0,0,1,2.55,1.82,14.22,14.22,0,0,1,.57,5.06q0,58.62,0,117.23a16.9,16.9,0,0,1-.27,3.4,4.47,4.47,0,0,1-1,1.93,1.44,1.44,0,0,1-1.94-.3c-1.68-3-1.16-6.32-1.17-9.55-.2-36.31-.19-72.62-.2-108.93,0-6.67-.5-7.12-7.14-7.15q-21.68-.07-43.35,0c-7,0-7.43.44-7.43,7.45,0,36.12,0,72.24-.22,108.36,0,3.19.38,6.41-.85,9.49a1.65,1.65,0,0,1-1.75.93,3.68,3.68,0,0,1-1.3-1.67,21,21,0,0,1-.47-6.23c0-28.89-.35-57.8.19-86.68.16-9.07.78-18.16.86-27.26-.19,6.59.18,13.18-.2,19.77-1.12,1.57-2.85,1.83-4.54,1.84-7.9,0-15.84.76-23.7-.63-2.23-.44-3.54-2.09-4.72-3.82a27.59,27.59,0,0,0-16.27-11.68c-3.57-.93-6.25-2.67-6.35-6.88,0-1.35-.52-2.74-2.18-2.9-2.05-.21-2.65,1.35-2.71,2.91-.16,4-2.51,5.5-6,6.38-8.35,2.11-15.61,5.88-19.76,14-.8,1.56-2,2.81-4,2.62-12.73.24-25.45.16-38.17.12-2.81,0-5.75.39-8.18-1.63-1.66-2.59-1.12-5.49-1.15-8.28-.22-17.93.34-35.86-.31-53.78A4,4,0,0,1,19,64.62Z"/><path class="cls-43" d="M31.68,51c1.23-2.46,3.44-1.09,5.1-1.1q81.59-.12,163.18-.06,144.34,0,288.69,0c1.69,0,3.37.13,5.06.22.09,0,.24.27.25.42a1.59,1.59,0,0,1-.2.52c-2,1.57-4.37,1.09-6.6,1.09q-224.45,0-448.88,0C36,52.09,33.68,52.57,31.68,51Z"/><path class="cls-44" d="M494.93,52.24c-1.76,1.71-4,1-6,1q-226.23,0-452.46,0c-2,0-4.22.72-6-1a.79.79,0,0,1,.8-.36c1.86-.58,3.77-.3,5.66-.3q225.75,0,451.49,0c1.89,0,3.81-.28,5.67.3A.79.79,0,0,1,494.93,52.24Z"/><path class="cls-45" d="M494.13,51.88c-2.85.08-5.69.23-8.53.23H36.42c-1.71,0-3.41-.15-5.11-.23a5.65,5.65,0,0,1,.37-.88H493.76A7.46,7.46,0,0,1,494.13,51.88Z"/><path class="cls-19" d="M19,64.62l.35,2.43c.71,12.72,0,25.46.35,38.17,1.44,47.86,1,95.73,1,143.6,0,2.93.87,6.16-1.76,8.61-.29.09-.59.17-.89.24-1.14-1.6-.41-3.42-.62-5.12.27-6-.56-12,.46-18q0-14.81,0-29.6,0-12,0-24a29.63,29.63,0,0,1,0-11.34l0-29.75c-1.08-10.52-.18-21.06-.47-31.58v-13c0-8.33-.05-16.66,0-25,0-1.82-.65-3.79.68-5.47Z"/><path class="cls-46" d="M17.83,234.6V253c-.35.53-.7.51-1,0v-1.14c0-3.56,0-7.12,0-10.68,0-2.37.44-4.59-3-5.67-3-.94-1.13-4.26-1.58-6.48h4.56C17.08,230.88,16,233,17.83,234.6Z"/><path class="cls-41" d="M513.22,330.58v13.7a3.33,3.33,0,0,1-4.56,0c0-3.15.19-6.31-.05-9.43C508.34,331.27,510,330.22,513.22,330.58Z"/><path class="cls-33" d="M508.66,344.28h4.56v9.12h-4.56c0-2.29,0-4.57,0-6.86C508.65,345.8,508.66,345,508.66,344.28Z"/><path class="cls-28" d="M17.81,169.66c0,3.78,0,7.56,0,11.34-2.11-3.62-.57-7.57-1-11.33Z"/><path class="cls-47" d="M17.84,108v31.88c-2.31-4.78-.46-9.85-1.06-14.75q0-8.56,0-17.12C17.14,107.53,17.49,107.53,17.84,108Z"/><path class="cls-17" d="M17.84,108H16.79q0-6.29,0-12.55h0c.35-.51.71-.51,1.06,0Z"/><path class="cls-39" d="M12.22,440.14c0-1.52,0-3,0-4.56q0-6.85,0-13.7c3.23-.38,4.81.74,4.62,4.31-.24,4.64-.06,9.3-.06,13.95l-.61.59A3.31,3.31,0,0,1,12.22,440.14Z"/><path class="cls-39" d="M17.88,440.12q0,7.42,0,14.84c-.36.53-.73.53-1.11,0a15,15,0,0,1,0-14.84h0Z"/><path class="cls-18" d="M507.61,208.39v-25c.36-.49.71-.49,1,0,0,3,0,6.09,0,9.13C508.15,197.78,509.78,203.21,507.61,208.39Z"/><path class="cls-6" d="M12.21,308.9c0-.76,0-1.53,0-2.29,3.13-.34,5,.63,4.59,4.21-.2,2,0,4,0,6.07a3.33,3.33,0,0,1-4.56,0Z"/><path class="cls-6" d="M12.22,316.89h4.56v4.56a1.55,1.55,0,0,1,0,2.29C10.75,324.45,12.47,320,12.22,316.89Z"/><path class="cls-6" d="M16.78,323.74v-2.29H17.9q0,8.55,0,17.1C15.45,333.77,17.41,328.66,16.78,323.74Z"/><path class="cls-2" d="M507.55,96.62q0-15.33-.1-30.66c.29-.46.71-2.39,1.06-.4.55,3,.15,6.25.15,9.39q0,10.83,0,21.67C508.29,97.16,507.92,97.13,507.55,96.62Z"/><path class="cls-17" d="M507.55,96.62h1.1c0,.77,0,1.53,0,2.29q0,10.85,0,21.68c-.43,2.64,1,5.54-1.08,7.95Q507.56,112.58,507.55,96.62Z"/><path class="cls-48" d="M507.6,160.53c0-2.28,0-4.56,0-6.84h1.06c0,1.9,0,3.8,0,5.71v1.14C508.3,161,508,161.06,507.6,160.53Z"/><path class="cls-49" d="M17.92,286.07c0,.38,0,.77,0,1.15-4.69.76-6.36-1.34-5.76-5.88a42.64,42.64,0,0,0,0-5.54,3.32,3.32,0,0,1,4.56,0C17.29,279.21,15.64,282.86,17.92,286.07Z"/><path class="cls-34" d="M16.78,275.8H12.22v-4.56C15.76,270.74,17.28,272.25,16.78,275.8Z"/><path class="cls-49" d="M18,288.33l0,13.72A17.74,17.74,0,0,1,18,288.33Z"/><path class="cls-2" d="M17.85,95.48H16.79q0-10.26,0-20.53c.12-3.42.24-6.84.38-10.26,0,0,.3-.14.44-.11a1.54,1.54,0,0,1,.48.27Q18,80.17,17.85,95.48Z"/><path class="cls-13" d="M507.6,160.53h1.06v21.68c0,.38,0,.76,0,1.14l-1,0Q507.61,171.93,507.6,160.53Z"/><path class="cls-26" d="M16.78,253h1c.05,1.57.11,3.13.16,4.69q0,6.24,0,12.46C15.38,264.55,17.45,258.67,16.78,253Z"/><path class="cls-30" d="M16.78,440.14V455H12.22V440.14Z"/><path class="cls-38" d="M20.21,427.59V401.34c3-2.43,6.55-1.58,9.89-1.58q128.85-.08,257.71,0,104,0,208.1,0c3.16,0,6.53-.74,9.32,1.59v26.25c-2,1.58-4.36,1.12-6.6,1.12q-235.9,0-471.83,0C24.56,428.71,22.2,429.17,20.21,427.59Z"/><path class="cls-50" d="M20.21,399.06v-24c3-2.43,6.55-1.58,9.88-1.58q157.37-.08,314.71-.05c34.78,0,69.55.15,104.33-.1,16.58-.25,33.15-.09,49.73-.08,2.28,0,4.55.15,6.37,1.81V400.2a4.56,4.56,0,0,1-2.74.55c-34.77-.06-69.54.12-104.32-.09-2.8-.77-5.67-.45-8.51-.45q-180.28,0-360.58,0C26.11,400.16,23,401,20.21,399.06Z"/><path class="cls-51" d="M505.23,375.09H449.31c-2.16-1.14-4.48-.56-6.72-.56q-207.82,0-415.65-.06c-2.24,0-4.56.56-6.73-.52V351.12c1.66-1.52,3.74-1.73,5.85-1.81,1.9-.08,3.8-.06,5.7-.06q231,0,461.91,0c3.91,0,8.05-.93,11.56,1.83Z"/><path class="cls-52" d="M505.23,351.12h-485V328.3c3-2.43,6.55-1.58,9.89-1.58q128.28-.08,256.57,0,104.61,0,209.24,0c3.16,0,6.53-.74,9.32,1.59Z"/><path class="cls-53" d="M20.21,327.16V308.9c2-2,4.58-1.59,7-1.59q137.15.07,274.29,0,71.57.07,143.13-.08a13.92,13.92,0,0,0,4-.39c8.78-1.77,17.66-.73,26.5-.92,7.54-.16,15.08-.07,22.62,0,2.63,0,5.33-.14,7.51,1.81h0v19.4c-2,1-4.11.52-6.16.53q-236.35,0-472.7,0C24.31,327.68,22.18,328.21,20.21,327.16Z"/><ellipse class="cls-52" cx="262.72" cy="327.73" rx="342.96" ry="0.81"/><path class="cls-35" d="M20.21,427.59h485v1.14c-2,1-4.11.53-6.16.53q-236.35,0-472.7,0c-2.06,0-4.19.52-6.16-.53Z"/><path class="cls-35" d="M20.21,428.73h485c-2.08,2-4.7,1.09-7.06,1.09q-239,.07-478,.05Z"/><path class="cls-38" d="M398,400.2H505.23v1.14h-485V400.2c2-1.05,4.1-.53,6.15-.53q182.73,0,365.44,0C393.85,399.67,396,399.15,398,400.2Z"/><path class="cls-53" d="M449.31,308.9H20.21v-1.14l.85-.77c2.67-1.37,5.56-1.08,8.4-1.08q205.23,0,410.47.06C443.18,306,447.28,304.45,449.31,308.9Z"/><path class="cls-51" d="M20.21,374q211,0,422,0c2.36,0,5-1,7.06,1.1H20.21Z"/><path class="cls-38" d="M398,400.2H20.21v-1.14q185.34,0,370.69,0C393.25,399.1,395.87,398.14,398,400.2Z"/><path class="cls-38" d="M18.88,257.43q.14-91.49.27-183c0-2.47.1-4.94.15-7.4,1.55,1.81.86,4,.87,6q.07,28.35,0,56.68c1.67,1.83,1.81,4.11,1.81,6.39,0,21.34.24,42.69-.11,64,.15,8,.21,16,0,24,.11,6,.17,12.05,0,18.07,0,1.06,0,2.11,0,3.17q.25,10,0,20c.11,5.87.13,11.74,0,17.61,0,1,0,2.08,0,3.11,0,.7,0,1.39.06,2.09-.57,6.53,1.71,13.31-1.66,19.61H19.3Z"/><path class="cls-30" d="M16.78,455l1.11,0c-.44,3.42,1.16,7.06-1.11,10.29Z"/><path class="cls-54" d="M505.23,101.19c0-10,0-20,0-29.93,0-1.84-.51-3.8.84-5.44l.06,62.79-.92,0a4.39,4.39,0,0,1-1.2-1.8C503.72,118.22,501.81,109.58,505.23,101.19Z"/><path class="cls-55" d="M20.21,307.76V287.21c2.6-2.22,5.76-1.58,8.73-1.58,36.83-.06,73.66,0,110.49-.05.76,0,1.51,0,2.27,0q176.82.1,353.64.06c3.34,0,6.9-.85,9.89,1.58v20.55H456.47c-2.45,0-4.93-.26-7.16,1.14-2.08-2.06-4.7-1.1-7.06-1.1Q231.23,307.73,20.21,307.76Z"/><path class="cls-44" d="M20.21,265.53V245c3-2.44,6.55-1.58,9.89-1.58q132.84-.06,265.68,0,100.07,0,200.13,0c3.16,0,6.53-.75,9.32,1.59v20.54c-1.67,1.53-3.74,1.73-5.85,1.82-1.9.07-3.8,0-5.71,0q-231,0-461.91,0C27.86,267.36,23.71,268.3,20.21,265.53Z"/><path class="cls-56" d="M20.21,265.53h485v18.26c-3,2.43-6.55,1.58-9.89,1.58q-169.62.06-339.26,0-63.56,0-127.12,0c-3,0-6.15.64-8.75-1.59Z"/><path class="cls-57" d="M505.23,129.72V156c-2,1.85-4.59,1.6-7,1.6q-134.64,0-269.27,0c-2.25,0-4.6.29-6.6-1.21-1.22-9-.9-17.93-.16-26.9,2.13-1.73,4.69-1.33,7.11-1.33q134.19,0,268.36,0C500.25,128.13,503,127.74,505.23,129.72Z"/><path class="cls-58" d="M20.21,242.71V224.45c2.4-2.08,5.33-1.7,8.15-1.71,17.46,0,34.91-.09,52.37,0,4.08,0,7.83-.18,10.61-3.62a3.48,3.48,0,0,1,1.8.28c2.6,2.89,1,6.56,1.81,9.76a8.46,8.46,0,0,0,.9,1.17c1.92.84,3.78,1.49,4.82-1.19.84-3.17-1.12-7,2.27-9.56,1.45.15,2,1.08,2.07,2.4-1.54,1.94-.67,4.17-.93,6.26.25-2.12-.94-4.62,1.87-6,16.47-1.05,32.92-1.54,49.37.23,2.78,2.48.07,6.11,1.82,8.8l0,0c.84.67,1.87.52,2.84.61q29.12.18,58.23,0c1-.09,2,.08,2.83-.6v0c1.05-1.36,0-3.79,2.35-4.49,2.76-1,5.63-.76,8.47-.76q101.81,0,203.61,0c20.34,0,40.68-.16,61,0,3,0,6.15-.39,8.71,1.83v14.84c-1.8,1.47-4,1.1-6,1.12-6.84,0-13.69,0-20.54,0H159.15q-65.61,0-131.21,0C25.34,243.81,22.58,244.47,20.21,242.71Z"/><path class="cls-59" d="M505.23,178.8v22.82c-3.31,2.67-7.27,1.83-11,1.84q-130.68.06-261.35,0c-1.71,0-3.42,0-5.13-.05-1.9-.09-3.82-.17-5.42-1.42a92.88,92.88,0,0,1-.16-23.5c2.28-1.83,5-1.57,7.64-1.57q133.65,0,267.28,0C499.93,177,502.86,176.7,505.23,178.8Z"/><path class="cls-60" d="M222.21,201.62h283V223.3c-3.31,2.68-7.27,1.84-11,1.84q-130.65.06-261.29,0c-1.71,0-3.42,0-5.13,0-1.91-.08-3.82-.15-5.44-1.37C221.05,216.38,221.43,209,222.21,201.62Z"/><path class="cls-54" d="M505.23,178.8h-283a84.37,84.37,0,0,1,0-21.94c2.05-.57,4.16-.29,6.23-.29,68.18.1,136.35-.11,204.52.1q33.62.09,67.22-.09c1.67,0,3.43-.43,5,.53Z"/><path class="cls-58" d="M222.21,223.3h283v4.57h-283A4.5,4.5,0,0,1,222.21,223.3Z"/><path class="cls-55" d="M20.21,283.79h485v2.28c-2.17,1.08-4.49.53-6.73.53q-175.3,0-350.61.06c-2.23,0-4.56-.59-6.71.55H140c-2-1.11-4.1-.55-6.14-.56q-53.78,0-107.55,0c-2,0-4.17.52-6.14-.53Z"/><ellipse class="cls-58" cx="262.72" cy="243.85" rx="342.96" ry="1.61"/><path class="cls-61" d="M505.23,129.72h-283a2,2,0,0,1,.52-3c2.46-1.35,5.16-1.15,7.8-1.15,46,.16,91.9.11,137.85.14q63.51,0,127-.13c3.36,0,6.91-.63,9.84,1.83v1.15C505.24,129,505.24,129.34,505.23,129.72Z"/><path class="cls-55" d="M141.18,287.21c2.08-2,4.7-1.09,7-1.09q178.5-.08,357-.05v1.14Z"/><path class="cls-54" d="M505.23,157.11h-283a.68.68,0,0,1-.29-.76c.1-.25.19-.38.29-.38h283Z"/><path class="cls-61" d="M505.23,127.44h-283c-1.19-5.74-.22-11.55-.57-17.32-.13-2.21.58-4.5-.55-6.62l-1.17-1.18c-.37-.26-.49-.51-.36-.76s.25-.37.37-.37H505.23Z"/><path class="cls-62" d="M158.32,222.15c0-38,0-76-.2-113.93,0-3.64,1-5,4.78-4.93q26.21.27,52.41,0c3.82,0,4.8,1.29,4.78,4.93-.15,38-.15,75.95-.2,113.93-3.68-1.27-2.75-4.53-2.8-7.11-.26-12.17,1.34-11.65-11.79-11.65-12.5,0-25-.06-37.5,0-6,0-6.43.57-6.58,6.51a69.81,69.81,0,0,1-.16,7.38C160.81,219.21,161.29,221.71,158.32,222.15Z"/><path class="cls-54" d="M20.21,200.48q0-35.39,0-70.76c15-.1,30.07-.18,45.1-.35,1.34,0,1.55.63,1.73,1.59,1.66,2.76.37,5.56,0,8.29C65.41,151,69.86,159.12,80.66,164a64.83,64.83,0,0,0,10.16,3.66c3.44.9,5.07,3,5.1,6.51.08,9.48.24,19-.07,28.45-.18,5.51-2.71,7-7.94,4.8-7-2.9-12.2-7.62-14-15.32-.6-2.56-1.4-4.68-4.62-4.8-3.57-.13-5.44,1-4.67,4.95.52,2.69,2,5.49-.18,8.17-1.86,1.64-4.16,1.79-6.44,1.81q-16,.17-31.93,0C24,202.22,21.88,202,20.21,200.48Z"/><path class="cls-63" d="M64.79,199.31c-.38-1.47-.77-2.93-1.14-4.4-2.38-9.25-2-9.6,7.32-9.3,3.12.1,3.66,1.41,4,4,1.23,8.87,6.91,14,14.94,17,2.83,1.06,4.63,1.17,4.56-2.84-.18-10.07-.13-20.15,0-30.23,0-2.55-.8-3.75-3.37-4.25a48.11,48.11,0,0,1-7.6-2.38c-15.35-5.68-20.61-15-17.65-31.06.31-1.68.77-3.32,1.16-5,5-10,12.88-16.28,24-18,3.63-.55,3.69-2.56,3.42-5.11-.35-3.3.59-4.73,4.3-4.7s3.76,2,3.72,4.7c0,2.11-.82,4.62,2.66,5.21,10.34,1.76,17.23,8.13,22.16,17a3.53,3.53,0,0,1,1.62,1.55c1.28,3.33,4.71,6.93.77,10.16-3.64,3-11.54.49-13.64-3.85s-5-8.06-9.54-10.07c-1.78-.39-2.47.55-2.47,2.14,0,8.87-.37,17.74.21,26.61a2.31,2.31,0,0,0,.94,1.37c1.67,1.41,3.75,1.8,5.76,2.32,11,2.83,19,9.11,23.26,19.87a10.47,10.47,0,0,1,.51,2.71c0,4.09.21,8.17-.11,12.25-4.23,15.67-16.33,25.33-31,24.79-2.4,3.46-.47,7.4-1.23,11.05a8.67,8.67,0,0,1-7.87.07l.17.18c-1.92-3.68.17-7.78-1.24-11.51v0c-9.78.14-17.7-3.83-24.07-11.06C66.94,206,64.8,203.16,64.79,199.31Z"/><path class="cls-54" d="M132.93,180.34c-4.65-10.52-12.8-16.62-23.91-19.07a38.71,38.71,0,0,1-4.77-1.69c-1.49-9.78-.43-19.62-.68-29.43-.06-2.31,1.27-3.4,3.36-3.82,5.78,1.88,8.6,6.37,10.52,11.74.92,2.56,10.6,4.64,12.33,2.69.87-1,.11-2.15-.09-3.21-.49-2.58-2.49-4.69-2.43-7.46l28.75-.37c1.23,7.3.41,14.64.51,22,.14,9.62.12,19.24,0,28.85a3.29,3.29,0,0,1-3.23,1.94C146.44,182.38,139.34,184.6,132.93,180.34Z"/><path class="cls-64" d="M158.32,222.15c2.45-4.85.9-10,1-15,.07-4,.93-5.69,5.37-5.63q24.44.38,48.87,0c4.45-.06,5.31,1.59,5.37,5.63.08,5-1.46,10.15,1,15,.05,3.06.1,6.11.14,9.17-1.44,1.15-3.16,1.1-4.86,1.1q-26.07,0-52.12,0c-1.7,0-3.42.05-4.87-1.1C158.23,228.26,158.28,225.21,158.32,222.15Z"/><path class="cls-65" d="M221.08,103.5c2.47,5.58.55,11.45,1.09,17.16.21,2.24,0,4.52,0,6.78v2.28q0,13.13,0,26.25v71.9c-.05,1.25.21,2.59-1.14,3.41Q221.07,167.38,221.08,103.5Z"/><path class="cls-65" d="M156,181.08V104.79h1.13V231.28c-2.18-2.41-.68-5.33-1.13-8-1.51-1.65-1.76-3.71-1.78-5.81q-.15-15.3,0-30.59C154.25,184.8,154.5,182.73,156,181.08Z"/><path class="cls-60" d="M158.18,231.32H220l1,0-1.16,1.15c-4.46,1.19-9,.46-13.5.49-14.17.12-28.35.07-42.52,0-1.86,0-3.79.47-5.57-.51-.38-.39-.76-.77-1.15-1.15Z"/><path class="cls-66" d="M219.92,101.19c0,.38,0,.75,0,1.13H159.69v-1.13Z"/><path class="cls-58" d="M64.79,199.31c5.61,12.29,16,17.86,28.58,20.46l-2.22.33c1.84,6.82-3.58,4.22-6.05,4.24-21.63.19-43.26.11-64.89.11v-24q19,0,38,0C60.48,200.5,62.75,200.55,64.79,199.31Z"/><path class="cls-55" d="M20.21,286.07q56.67,0,113.35,0c2.17,0,4.6-.86,6.48,1.1H20.21Z"/><path class="cls-60" d="M156,181.08V223.3H104.66c-.32-.25-.42-.5-.32-.76s.21-.38.32-.38c-.38-.74-.75-1.48-1.12-2.22.44-.32.85-.86,1.32-.92,14.28-1.82,24.06-9.14,28.41-23.14a41.66,41.66,0,0,0,.1-13.6c-.14-.65-.29-1.29-.44-1.94C140.59,181.66,148.32,180.87,156,181.08Z"/><path class="cls-67" d="M158.31,232.45H219.9c-1.1,1.42-2.7,1.12-4.17,1.12q-26.62,0-53.24,0C161,233.57,159.42,233.87,158.31,232.45Z"/><path class="cls-58" d="M93.37,219.73c2.28,3.63.37,7.72,1.24,11.51C91.77,227.66,93.81,223.56,93.37,219.73Z"/><path class="cls-44" d="M104.66,222.16v7.74C103.82,227.29,102.6,224.65,104.66,222.16Z"/><path class="cls-44" d="M94.44,231.06l7.87-.07C99.71,233.32,97.08,233.21,94.44,231.06Z"/><path class="cls-58" d="M72.41,184.29H63.79v-.56h8.67Z"/><path class="cls-59" d="M108,174.43c9.69,3.35,13.49,8.86,12.52,18.1-.9,8.48-6.35,13.55-15.88,14.77-2-2.92-1-6.22-1.09-9.35-.15-6.2,0-12.42-.06-18.63C103.48,176.14,104.53,174.23,108,174.43Z"/><path class="cls-68" d="M94.44,140.87c0,4.18-.17,8.37,0,12.54.19,3.52-1.12,3.63-4,2.66-8.38-2.82-12.19-7.39-12.16-15.1,0-8,4-13.3,11.49-15.79,3.12-1,5-1.15,4.67,3.16C94.18,132.49,94.44,136.69,94.44,140.87Z"/><path class="cls-69" d="M106.93,126.33c-2,1.52-2.48,3.54-2.3,6,.65,8.89-1.22,17.88,1.07,26.71a11.1,11.1,0,0,1-1.45.58c-2.61-.44-1.78-2.53-1.79-4-.07-8.86.08-17.73-.08-26.6C102.31,124.86,103.68,124.18,106.93,126.33Z"/><path class="cls-70" d="M108,174.43c-2.48,1-3.53,2.68-3.45,5.61.24,9.08.09,18.17.09,27.26-3.41.17-2.16-2.47-2.18-4-.12-8.46.18-16.93-.14-25.38C102.14,172.69,103.85,171.91,108,174.43Z"/><path class="cls-54" d="M133.37,182.28a19.75,19.75,0,0,1-.1,13.6Q133.33,189.08,133.37,182.28Z"/></svg>