<svg id="Calque_1" data-name="Calque 1" xmlns="http://www.w3.org/2000/svg" viewBox="0 0 526 529"><defs><style>.cls-1{fill:#0868ab;}.cls-2{fill:#0968ac;}.cls-3{fill:#67a2cb;}.cls-4{fill:#4a90c2;}</style></defs><path class="cls-1" d="M136.13,73.16c-18.45,44.22-14.34,87.62,7.39,129.06,27.73,52.87,71.57,86.62,129.8,100,38.07,8.73,75.77,6.14,111.58-11.25a121.76,121.76,0,0,0,21.49-13.57c6.59-5.13,12.35-11.11,18.41-17.78a14,14,0,0,1-2.36,6.82c-26.74,47.75-67.36,74.38-121.7,80.73-95.21,11.13-170.37-53.8-195.32-120.34C92.2,191.54,89.16,156,103.13,120.09a103.62,103.62,0,0,1,16.15-28c5.35-6.59,10.55-13.3,15.82-20C136,71.9,136.5,72.1,136.13,73.16Z"/><path class="cls-1" d="M222.37,42.05c-2.23,8.1-5,15.86-6.35,24-4.6,28.55,1.28,55.12,16.75,79.19,27.15,42.25,66,65.57,116.43,67.15,31.73,1,59.38-10,80.84-34.41.68-.78,1.09-2.18,2.75-1.65.43,1.81-.82,3.1-1.54,4.5-17.51,34.24-45.54,53.73-83.42,59.34-51.29,7.6-93-10.19-125.94-49-18.58-21.91-28.69-47.79-28.7-76.95,0-20.15,5.46-38.74,17.15-55.32C214.32,53.29,218.36,47.68,222.37,42.05Z"/><path class="cls-1" d="M190.56,423.74c4.23-18.82-3.89-36.09-20.4-42.27-19-7.1-47.16-3.93-61.42,20.54a81.7,81.7,0,0,0-11.49,42.33c.16,20,12.15,32,32.07,32.56,8.49.24,17,0,25.48,0h18c13,0,13,0,16.27-12.79,1.62-6.33,1.62-6.56-4.8-6.62-4.16,0-4.68-1.28-3.16-5A177,177,0,0,0,190.56,423.74ZM166.67,427c-2.34,8.31-4.86,16.58-6.95,25-.94,3.73-2.64,5.35-6.54,4.93a77.52,77.52,0,0,0-8.49-.06v0c-3,0-6,.13-9,0-8.67-.47-14-5.4-14.55-14.07a55.72,55.72,0,0,1,7.66-32.52c5.86-9.87,17.59-13.94,28.66-10.54,6.49,2,9.83,6.49,10.6,13A36.68,36.68,0,0,1,166.67,427Z"/><path class="cls-1" d="M350.94,418.87c-.68-9.9-5.79-16.27-15.39-19.12a53.79,53.79,0,0,0-18.3-1.66c-19.28,1.05-31.13,10.07-37.35,28.35a104.14,104.14,0,0,0-4.7,20.37c-2.4,18.77,4.77,28,23.42,30.31,12.44,1.51,24.94.27,37.41.56,2.67.07,3.85-1.15,4.27-3.74.62-3.77,1.44-7.51,2.39-11.21.88-3.41.09-4.84-3.75-4.75-9.49.21-19,.08-28.47,0a26.81,26.81,0,0,1-7.9-.87c-3.86-1.2-5.65-3.65-5.85-7.67-.14-3,.7-4.13,3.88-4,7,.22,14,.07,21,.07,7.16,0,14.32,0,21.48,0,2.28,0,4.25-.12,4.91-3C349.76,434.74,351.49,427,350.94,418.87ZM329,427.16c-.73,3.32-3.76,1.79-5.83,2-2.79.23-5.62.06-8.44.05-3.64,0-7.28-.1-10.92,0-3.4.13-3.54-1.34-2.33-3.92,3.68-7.9,17.71-11.65,24.66-6.55C329.08,420.88,329.73,424,329,427.16Z"/><path class="cls-1" d="M420.87,117c-13.44,22.14-33.66,31.67-59,31.68-42.2,0-74.93-32.34-82.31-63.77C274.43,63,279.22,43.35,293.41,26c.27-.32.78-.44,1.68-.91-2,6.44-3.86,12.43-4.13,18.77-1.4,33.91,21.42,67.09,55.39,80.08,15,5.74,30.57,7.82,46.59,5.29,10.33-1.63,19.17-6.3,26.92-13.2C420.78,115.72,421.19,116,420.87,117Z"/><path class="cls-1" d="M237.54,476.83c-5.33,0-10.66.11-16,0-16.37-.4-24.3-9.26-23-25.65,1-12.65,4.59-24.82,6.91-37.23.67-3.59,1.76-7.11,2.27-10.72.44-3,1.73-4.34,4.89-4.19,4.15.2,8.32.19,12.48,0,3.54-.16,4.13,1.09,3.4,4.47-2.79,13-5.28,26.05-7.85,39.09A33.44,33.44,0,0,0,220,447c-.53,8.24,1.85,10.78,10.18,10.92,13,.22,13,.22,15.69-12.43,3-14,6.15-27.9,8.95-41.91.71-3.52,2.15-4.8,5.64-4.59,4,.23,8,.09,12,0,2.49,0,3.63.55,3,3.5q-7.68,35.31-15.05,70.69c-.62,2.95-2.14,3.68-4.86,3.63C249.53,476.75,243.53,476.84,237.54,476.83Z"/><path class="cls-1" d="M495.43,387.92c-.12,2.35-1.54,3.39-2.49,4.66-15,19.94-29.8,40-45.12,59.69-4.67,6-6.08,12.82-7.71,19.69-.92,3.88-2.64,5.19-6.5,5-4.81-.3-9.65-.15-14.47,0-2.68.06-4-.94-2.82-3.52,5.24-11.52,2.49-22.62-1.36-33.76-1.4-4.07-2.3-8.32-3.64-12.42-1.05-3.19,0-4.2,3.2-4.1,5,.16,10,.22,15,0,3.35-.15,4.8,1.25,5.4,4.38.51,2.68.64,5.54,2.55,8.41,7.79-11.41,16.27-22,22.69-33.74,6.33-11.54,14.48-16.71,27.46-14.25C490.09,388.32,492.76,387.92,495.43,387.92Z"/><path class="cls-1" d="M395.66,399.26c6.88.31,15.22-.59,23.51.5a15.24,15.24,0,0,1,13,16.69c-.36,2.9-2.64,2-4.25,2.05-12.15.07-24.3.24-36.45-.06-4.79-.12-6.92,1-7.86,6.2-2.84,15.69-6.51,31.22-9.56,46.87-.8,4.11-2.61,5.7-6.7,5.38-3.14-.25-6.32,0-9.48-.06-5.35-.06-5.81-.6-4.69-5.82,4.41-20.63,8.75-41.28,13.31-61.88,2.51-11.33-.26-9.73,12.22-9.86C383.91,399.22,389.07,399.26,395.66,399.26Z"/><path class="cls-1" d="M46,508.14c-12.16-.15-11.86-.09-9.46-11.76,1.13-5.51,2.69-8.56,9.17-7.84,4.61.52,6.78-3.72,8.45-7.39,3.4-7.5,4-15.75,5.88-23.66q3.64-15.27,6.83-30.66c.59-2.84,1.85-3.94,4.7-3.85,4.82.14,9.66.13,14.49,0,2.73-.08,3.63,1,3,3.6-4.62,20.08-7.77,40.53-13.64,60.3C69.36,507.28,59.62,509,46,508.14Z"/><path class="cls-2" d="M80.13,417.87c-11.3,0-11.3,0-8.82-10.79.4-1.78.85-3.55,1.27-5.33S74,398.9,76,398.93c5.33.07,10.65,0,16,0,2.08,0,3.2.64,2.51,3-.51,1.75-.83,3.56-1.23,5.34C91,417.87,91,417.87,80.13,417.87Z"/><path class="cls-3" d="M136.13,73.16l-1-1c.48-.86.72-2.59,2-1.64C138,71.12,137,72.43,136.13,73.16Z"/><path class="cls-4" d="M420.87,117l-1-1c.56-.92,1.15-2.61,2.33-1.6C423.1,115.17,421.78,116.31,420.87,117Z"/></svg>