<svg id="Calque_1" data-name="Calque 1" xmlns="http://www.w3.org/2000/svg" xmlns:xlink="http://www.w3.org/1999/xlink" viewBox="0 0 368.6 365"><defs><style>.cls-1{fill:url(#Dégradé_sans_nom);}.cls-2{fill:url(#Dégradé_sans_nom_2);}.cls-3{fill:#1d2b4d;}.cls-4{fill:#69686a;}.cls-5{fill:#002000;}.cls-6{fill:url(#Dégradé_sans_nom_3);}.cls-7{fill:#fff;}.cls-8{fill:#514f50;}.cls-9{fill:#86ae1c;}.cls-10{fill:#d6b47f;}.cls-11{fill:#062603;}</style><linearGradient id="Dégradé_sans_nom" x1="100.12" y1="38.06" x2="230.04" y2="154.63" gradientTransform="translate(0 69)" gradientUnits="userSpaceOnUse"><stop offset="0" stop-color="#7d9c37"/><stop offset="1" stop-color="#1a4e13"/></linearGradient><linearGradient id="Dégradé_sans_nom_2" x1="202.78" y1="86.62" x2="202.78" y2="-32.03" gradientTransform="translate(-18.53 61.43)" gradientUnits="userSpaceOnUse"><stop offset="0" stop-color="#fff"/><stop offset="0.16" stop-color="#eaf1f9"/><stop offset="0.49" stop-color="#b2cde8"/><stop offset="0.95" stop-color="#5a93cd"/><stop offset="0.99" stop-color="#538ecb"/></linearGradient><linearGradient id="Dégradé_sans_nom_3" x1="203.97" y1="138.04" x2="257.91" y2="327.19" gradientTransform="translate(-18.53 61.43)" gradientUnits="userSpaceOnUse"><stop offset="0.08" stop-color="#002a55"/><stop offset="0.56" stop-color="#0090d5"/></linearGradient></defs><ellipse class="cls-1" cx="184.2" cy="182.5" rx="155.5" ry="154"/><path class="cls-2" d="M337.8,157.8c-12-73.3-76.2-129.3-153.5-129.3-77.7,0-142,56.4-153.6,130.1,47.6-8.5,100.4-13.2,156-13.2A904.22,904.22,0,0,1,337.8,157.8Z"/><path class="cls-3" d="M184.3,365C82.7,365,0,283.1,0,182.5S82.7,0,184.3,0,368.6,81.9,368.6,182.5,285.9,365,184.3,365Zm0-347.2C92.6,17.8,18,91.7,18,182.5S92.6,347.2,184.3,347.2s166.3-73.9,166.3-164.7S276,17.8,184.3,17.8Z"/><path class="cls-4" d="M339.6,187.9c.1-1.7.1-3.4.1-5.1-8-.2-16.1-.4-24.3-.4C207,182.4,109,202.8,38.3,235.9a144.85,144.85,0,0,0,8.6,18.8c62.7-40.4,166.8-66.9,284.5-66.9C334.2,187.9,336.9,187.9,339.6,187.9Z"/><path class="cls-5" d="M276.3,146a4.16,4.16,0,0,0-2.7-.3h-.3c-.1-.1-.1-.2-.1-.7,0-.2-.2-.4-.4-.6a3.17,3.17,0,0,0-1.9-1.5,4.68,4.68,0,0,0-2.6-.5,6.12,6.12,0,0,0-1.2-.5c-.1-1.2-.5-2.6-.7-1.9a1.83,1.83,0,0,0-.9-2.4.1.1,0,0,1-.1-.1,1.21,1.21,0,0,0-1.4.2,4.24,4.24,0,0,0-1.2,2.4.75.75,0,0,0-.5.1c-.2-2.4,2.1-5.2-1.4-6.5a1.13,1.13,0,0,0-1.1.3c-.2.1-2,.3-2.2.4a1.08,1.08,0,0,0-.7,1.4,2.19,2.19,0,0,0,.3.5c-.1.1-.1.3-.2.4a1.93,1.93,0,0,0-1.5.1,5.7,5.7,0,0,0-1.3.1,8.65,8.65,0,0,0-2.3-.6c-1.1.2-2.1.5-2.5,1.8v.3a2.62,2.62,0,0,1-1.5.2,2.75,2.75,0,0,0-3.4,1.3,2.37,2.37,0,0,0-1.6,2,2.44,2.44,0,0,0-2.1,1.2,3.3,3.3,0,0,0-1.4,0,1.08,1.08,0,0,0-1.1.8,4.33,4.33,0,0,1-.1.5,1.23,1.23,0,0,0,.2,1c.2.5,1.4,1.2,2,1.6,11.9.7,23.5,1.5,35,2.6a1,1,0,0,0,1.2-.3,2.54,2.54,0,0,0,.8-2.2A2.35,2.35,0,0,0,276.3,146Z"/><path class="cls-5" d="M304.5,146.8c-.5-1.1-2-1.6-3.3-2a9,9,0,0,0-2.4-1.2,1.06,1.06,0,0,0-.8.1.37.37,0,0,0-.3.1c.2-.4-.6-.4-1.4-.3-.6-1.8-2.1-3.1-4.3-2.4a1.09,1.09,0,0,0-.8.8c-.3,2.1,1.2,3.4,1.9,5.3l-.3.4a3,3,0,0,0-2.1.3,5.23,5.23,0,0,0-1.6-.6v-.9a1.2,1.2,0,0,0-1.1-1.2,1.22,1.22,0,0,0-.9.4l-.3.4a1.13,1.13,0,0,0-.3,1.1,18.5,18.5,0,0,0-1-2,1,1,0,0,0-1.1-.5h0c-.1-.1-.2,0-.3,0v.1a1.21,1.21,0,0,0-.7.7,4.11,4.11,0,0,0,0,2.2c-.7,0-.5-.6-1.5-.8-.2,0-.3,0-.3.1-.2-.5-.7-.7-1.1-1-.9-.6-1.9.4-1.7,1.3a2.92,2.92,0,0,0,.2.9c0,.1.1.2.1.3a6.12,6.12,0,0,0-1.2.5c-.6.3-.5.8-.3,1.2q12.45,1.2,24.6,2.7h.1a1.1,1.1,0,0,0,1-.6A4.51,4.51,0,0,0,304.5,146.8Z"/><path class="cls-5" d="M90.5,148.4c-1-1-1.3-1.6-2.3-2-.3-1.8-1.2-4.6-2.7-5-2.1-.6-3.5,1.1-4.3,2.9a6,6,0,0,0-1.9-.6c-.4-1.7-1.5-3.1-3.7-2.5a2.18,2.18,0,0,0-.8.5v.1c-1,1.2-.7,3.7.2,4.8l-.1.1a1.3,1.3,0,0,0-1.2.8,1,1,0,0,0-.5.8,1.52,1.52,0,0,0-1.2-.7c0-.2.1-.4.1-.6l.3-.6c.3-1-.6-1.5-1.4-1.3a2.32,2.32,0,0,0-3.2.2c-.1.1-.1.2-.2.3a3.61,3.61,0,0,0-2.5-.6,1.09,1.09,0,0,0-.8.8c-1.7.4-2.1,2.2-1.7,4a3.19,3.19,0,0,0-2.4,1.1c-1.6,2.4-6.1.3-8.8,1.1-.3.1-1.5-.9-2-1a6.37,6.37,0,0,0-3.6.8,11.36,11.36,0,0,0-3.5,3.4,1.12,1.12,0,0,0,.3,1.5c.1.1.2.1.4.2h0a1.41,1.41,0,0,0,.9-.1c15-2.4,30.4-4.4,46.3-6.1l-.1-.1a1.19,1.19,0,0,0,.7-1.5C90.7,148.6,90.6,148.5,90.5,148.4Z"/><path class="cls-6" d="M183.4,336.2c85.8,0,155.3-68.8,155.5-153.6-8-.2-16.1-.3-24.3-.4-108.4,0-206.4,20.4-277.1,53.5A155.78,155.78,0,0,0,183.4,336.2Z"/><path class="cls-7" d="M147.9,307.4a4.44,4.44,0,0,0-3.8,2,96.88,96.88,0,0,1-62.8-38.8c13.3,21.1,35.5,37,62.4,42.5a4.69,4.69,0,0,0,4.1,2.9,4.26,4.26,0,0,0,.5-8.5.76.76,0,0,0-.4-.1Z"/><path class="cls-7" d="M289.8,268.8A96.88,96.88,0,0,1,227,307.6a4.57,4.57,0,0,0-3.8-2,4.2,4.2,0,1,0-.4,8.4h.6a4.34,4.34,0,0,0,4.1-2.8A96.31,96.31,0,0,0,289.8,268.8Z"/><path class="cls-8" d="M89.9,152.4c27.5,12.3,50,17.3,91.5,17.3,42.6,0,63.3-2.7,91.5-18.5A848.21,848.21,0,0,0,89.9,152.4Z"/><path class="cls-9" d="M339.6,187.9c.1-1.7.1-3.4.1-5.1-8-.2-16.1-.4-24.3-.4C207,182.4,109,202.8,38.3,235.9a144.85,144.85,0,0,0,8.6,18.8c62.7-40.4,166.8-66.9,284.5-66.9C334.2,187.9,336.9,187.9,339.6,187.9Z"/><path class="cls-10" d="M74.6,151.6c31,13.8,56.3,19.4,103,19.4,47.9,0,71.2-3,103-20.8A952.17,952.17,0,0,0,74.6,151.6Z"/><path class="cls-11" d="M232.6,92.5a2,2,0,0,0-2.9-.8,35.23,35.23,0,0,1-4.2,1.5,1.45,1.45,0,0,1-1.9-.9c-.4-1,.4-1.3,1.1-1.6s1.9-.3,2.5-.6h0c2.1.2,5.2-1,5.1-3.5,0-1.8-1.8-2.9-3.4-3.4-.7-1.7-1.3-3.3-3-4.3a2,2,0,0,0-2.8.8c0,.1-.1.1-.1.2-.7,1.2-1.4,1.5-2.7.6-1.1-.8-1.6-1.5-1-2.8a3.18,3.18,0,0,0-.2-3.5c-1.4-2.1.8-6.6,3.4-7,1.6-.2,1.6-1.2,2-2.3,1.5-4.2-1.7-7.2-2.7-10.7-.4-1.5-1.7.1-2.9-.1.6-1.1,2.1-1.5,0-3.5-3.4-3.2-7.5-3.9-11.3-5.3-2.8-1.1-4-3.8-6.6-4.7-.7-.2-1.2-1.4-1.9-1-6.4,3.7-13,0-19.4.3a4,4,0,0,0-2.8.6c0,1.5,1.7,1.4,2.1,2.4-1.5,1.7-5,2-3.8,5.5,0,.2-.7.7-1.1.9a15.92,15.92,0,0,0-2.2,1.3c-.6,0-1.1.1-1.7.1a6.55,6.55,0,0,0-1.8-1.5,18.4,18.4,0,0,1-4.5-4.3c-1.3-1.7-7-.7-9.3,1.7a7.33,7.33,0,0,1-4.4,2.7c-4.3.5-4.1,3.5-3.7,6.2.4,2.4-.1,3.5-2.4,3.7s-.8,2.3-1.6,3.2c3,2.4-.3,4.9.1,7.4.1.5-.2.8.1,1.6,1.3,3.3.7,3.7-2.7,3.1a9.73,9.73,0,0,0-3.8.1c-1.2.3-3.9.6-.8,2.5.9.6.7,1.5,0,2.3-2.4,2.8-.5,4,2,4.4a35.8,35.8,0,0,1,3.5,1.1,3.93,3.93,0,0,1,1.3.4c-.1,2.5.7,6.1-.6,7.2-1.7,1.5-3.2,5-7.1,3.3-2.2-1-4,1.2-3.4,3.8.3,1.1,1.4,2.2-.4,3.1-2.7,1.3-1.3,3.7-.9,5.3a3.34,3.34,0,0,0,4.1,2.4h.1c1-.2,4.4-.7,5.3,2.2,2.4-1,5.3.9,7.4-1.1l.6-.6c3.1-.2,6.7-2.3,9.1-4.1h.1a36.23,36.23,0,0,0,4.3,2.4,7.26,7.26,0,0,0,7.1-.8,8.64,8.64,0,0,0,1.4,1.3l2,2.3a2.19,2.19,0,0,0,1.2,1.3l10.9,12.3v30h0v.1c0,.2,1.5.4,3.3.4s3.3-.2,3.3-.4l-.1-.1V117.9l3.8-2.5c.8-.6-1.8-2.5-1.6-4.3.1-.9-.6-2,.6-3.1.8,2.2,1.4,4.4,4,5.3a3.05,3.05,0,0,0-.3-3.1,1.61,1.61,0,0,1,.6-2.2.37.37,0,0,1,.3-.1c2.2.4,3.6-1.6,5.4-1.7,2.5-.2.1,1.8,1,2.8,3-2.9,7.8-2,10.9-5.6,1.4-1.7,4.2,1.2,6.2,2.1,1.7.7,4.2,1,5.4,3.1.5.8,1.6.7,2.3-.1a3.09,3.09,0,0,0,0-4.2,3.66,3.66,0,0,1-.4-4.8c.7-1.1,1.3-2.3,2.9-1.5a2.19,2.19,0,0,0,3-1c0-.1.1-.2.1-.3.7-1.3-.9-2.7-1.5-4.2M178.9,68.6l-.7.9a3.86,3.86,0,0,1-2.2,1.1c-1.6.4,0,0-.9-.2a1.17,1.17,0,0,1-1-.9s-1-.7-1-1.4,2.1-1.8,2.1-1.8l3.2,1.1Zm-8.3,29.3c-.2-.7,1.6-3,2.3-3.2h4.4a8.21,8.21,0,0,1,1.6,2.5c.7,1.6-.5,1.2-.7,2.1s-3.6,0-5.2,0-2.2-.7-2.4-1.4m12.5,20.8-6.7-8c1.1.2,2.4-.4,3,.8,1.4,3,1.4,3.2,3.7,2.5Zm.1-21.5c-1-.4-2-.6-3-.9s-.7-2,0-2.5l3,.9Z"/></svg>