<svg id="Calque_1" data-name="Calque 1" xmlns="http://www.w3.org/2000/svg" viewBox="0 0 526 529"><defs><style>.cls-1{fill:#ef5033;}</style></defs><path class="cls-1" d="M254.6,16h15.6c9.8.78,16.69,6.22,23.45,13Q396,131.94,499,234.28c7.23,7.18,12.31,14.63,13,24.82v14.3c-1.05,11.12-8.1,18.42-15.55,25.86q-100.11,99.93-200,200.1c-7.52,7.57-15.21,13.83-26.26,14.54h-13c-10.19-.71-17.64-5.79-24.82-13Q130.1,397.88,27.12,295.55c-6.8-6.76-12.24-13.64-13-23.45V256.5c.9-9.76,6.23-16.75,13.06-23.52C72.39,188.17,117.3,143,162.35,98,172.46,87.92,172.94,87.93,183,98c14.71,14.68,29.38,29.42,44.13,44.07,3.61,3.59,4.85,7.32,3.73,12.27-4,17.53,1.8,31,17.25,40.26a7.9,7.9,0,0,1,4.2,6.82c.11,2.17.22,4.33.22,6.49,0,39.86-.05,79.71.08,119.56,0,6.77-1.4,11.51-7.91,15.41-12.92,7.74-17.91,23.7-13.51,38.76,4,13.72,17.41,23.59,32.28,23.8,15.32.22,28.69-9.05,33.42-23.15,4.65-13.91-.25-30.38-12.3-38.85-5.19-3.65-7.21-7.84-7.2-14.06.12-39.42.05-78.84.09-118.25a31.25,31.25,0,0,1,.23-4.54c.87-6,4.22-7.37,8.87-3.41,5.28,4.5,9.95,9.65,14.85,14.54,9.51,9.49,18.91,19.08,28.52,28.45,4.11,4,5.48,7.86,4.1,13.79-4.23,18.28,7.53,36.92,25.17,41,19.08,4.43,37.27-6.5,42.11-25.29,5.95-23.13-14.44-46.1-38-42.17-6.83,1.14-11.39-.42-16.07-5.23-14.65-15-29.59-29.82-44.52-44.6-4-3.94-5.74-7.85-4.86-13.77,2.3-15.64-3.25-28-17.12-36.29-7.56-4.53-15.75-4.62-23.94-3.47-4.88.69-8.25-.67-11.57-4-15.9-15.95-31.9-31.8-47.73-47.83-6.56-6.65-6.62-8.6-.29-15.07,13.48-13.78,27.29-27.24,40.8-41C242.76,17.46,249.05,18,254.6,16Z"/></svg>