<svg id="Calque_1" data-name="Calque 1" xmlns="http://www.w3.org/2000/svg" viewBox="0 0 526 529"><defs><style>.cls-1{fill:#8ac400;}.cls-2{fill:#666861;}.cls-3{fill:#fefefe;}.cls-4{fill:#666860;}.cls-5{fill:#8bc400;}</style></defs><path class="cls-1" d="M199.93,36.33A118.44,118.44,0,0,0,215,27.68c3.62-3.58,8.1-5.68,12.79-7.42a6.42,6.42,0,0,0,3.09-1.75A153.09,153.09,0,0,0,247,9.17a33.58,33.58,0,0,1,16-4.29c5.81,0,11.06,2,16,4.78a160.24,160.24,0,0,0,15.94,9.15,7.4,7.4,0,0,0,3.3,2c4.65.82,8,4.2,12.21,6,10.84,6.53,21.84,12.8,32.84,19.06,3.11,2.06,6.43,3.77,9.64,5.66,2.2,1.34,4.35,2.75,6.66,3.9q7.08,4.06,14.16,8.1a91.82,91.82,0,0,0,8.16,4.71c2.78,1.84,5.8,3.28,8.64,5,5.53,3.14,10.93,6.5,16.53,9.5.67.34,1.33.7,2,1.08,4.71,3,9.59,5.76,14.51,8.43,4.11,2.64,8.4,5,12.63,7.4,6.16,3.36,12.05,7.19,18.27,10.43,3.41,2.28,7.12,4.08,10.57,6.3,1.84,1.3,4,2.07,5.82,3.33,6.41,3.68,13.27,6.79,17.35,13.48,3.12,4.82,4,10.21,4.12,15.81q.17,7.69,0,15.39.21,8,0,15.91c.13,5.33.14,10.67,0,16,.13,5.34.14,10.68,0,16,.13,5.34.14,10.68,0,16,.13,5.34.14,10.68,0,16,.13,5.34.14,10.68,0,16,.13,5.34.14,10.67,0,16,.13,5.34.14,10.68,0,16,.13,5.34.14,10.67,0,16,.13,5.34.14,10.68,0,16,.13,5.33.14,10.67,0,16,.12,5.32.14,10.65,0,16,.1,5.25.14,10.49,0,15.73s.6,10.39-.93,15.47a29.77,29.77,0,0,1-4,8.39,46.86,46.86,0,0,1-8.55,8.51c-2.72,1.62-5.49,3.13-8.21,4.75-6.72,3.87-13.45,7.72-20,11.81-3.88,2-7.61,4.19-11.31,6.47-10.76,5.91-21.24,12.3-31.89,18.4-3.9,1.84-7.35,4.49-11.21,6.41-1.92,1.09-3.82,2.25-5.77,3.3-5,3-10,5.91-15.05,8.72-2.66,1.64-5.52,3-8.1,4.75-2.48,1.25-4.76,2.87-7.24,4.12-5.74,3.48-11.62,6.71-17.37,10.17-.8.48-1.64.87-2.44,1.35-4.28,2.61-8.77,4.88-13,7.6-4.72,2.61-9.34,5.41-14.07,8-.95.6-1.91,1.16-2.87,1.73-5,3-10.09,5.73-15.08,8.71-3.89,1.79-7.15,4.83-11.47,5.79a10.4,10.4,0,0,0-4,2.29c-5.19,3-10.67,5.05-16.76,5.08A32.59,32.59,0,0,1,247,519.6a26.34,26.34,0,0,0-6.44-3.77c-3.54-.3-5.87-3.13-9-4.24-5.62-3.49-11.42-6.69-17.14-10-.33-.16-.65-.35-1-.53q-7.46-4.25-14.83-8.6c-4.26-2.37-8.41-4.92-12.73-7.18-5.77-3.6-11.76-6.83-17.58-10.35-3.52-2.1-7.16-4-10.68-6.15a70.1,70.1,0,0,0-6.25-3.58c-5.45-3.29-11.05-6.33-16.56-9.53a23.82,23.82,0,0,0-4.28-2.5c-4-2.45-8.11-4.6-12.07-7.07-5-2.95-10.08-5.61-15-8.68a21.53,21.53,0,0,0-1.91-1.11C97,433.7,92.47,431.16,88,428.45s-9.07-5.1-13.53-7.78c-1.1-.66-2.15-1.43-3.31-2-5.54-3.14-11.08-6.27-16.58-9.46a71,71,0,0,0-7.29-4.16c-3.71-2.18-7.21-4.59-9.44-8.42a25,25,0,0,1-3.54-7.73c-1.34-3.76-.9-7.66-.88-11.51.36-75.89,0-151.78.15-227.68,0-2.13,0-4.27.06-6.39.46-3.8,2.23-7.08,4.17-10.28,4-6.37,10.33-9.77,16.61-13.27,2.52-1.15,4.78-2.76,7.17-4.13,3-1.8,6.24-3.26,8.9-5.62,10.68-6.46,21.86-12,32.61-18.37,4-2.41,8.13-4.69,12.15-7.11,1.48-.76,2.83-1.75,4.3-2.53,5.11-2.74,10-5.78,15-8.72,3.28-1.72,6.47-3.58,9.6-5.53,2.18-1,4.12-2.53,6.28-3.61,5.9-3.2,11.57-6.82,17.46-10.07,1.09-.71,2.24-1.34,3.39-1.94,4.06-2.27,8-4.76,12-7C189,42.37,193.82,38.16,199.93,36.33Z"/><path class="cls-2" d="M357.51,246.42c0,16.81-.05,33.63,0,50.44,0,2.82-.77,4.84-3.3,6.27q-16.85,9.62-33.61,19.37a6.78,6.78,0,0,1-7.5-.14c-10.8-6.34-21.63-12.65-32.52-18.84a7.45,7.45,0,0,1-4.2-7.41c.18-12.54.13-25.08,0-37.63a6.45,6.45,0,0,1,3.66-6.41c11-6.22,22-12.55,32.85-19.08,3.68-2.22,6.49-.86,9.65.83,8.22,4.43,8.25,4.38,8.25-4.87q0-23.22,0-46.44c0-4.72.71-5.2,4.76-3,6,3.24,11.79,6.8,17.85,9.87,3.27,1.66,4.11,4,4.08,7.39C357.44,213.32,357.51,229.87,357.51,246.42Z"/><path class="cls-3" d="M167.76,276.37c0-6.26.09-12.53,0-18.79a6.62,6.62,0,0,1,3.72-6.48q16.67-9.51,33.23-19.19a6.78,6.78,0,0,1,7.49,0q16.74,9.78,33.58,19.38a6.37,6.37,0,0,1,3.47,6.19c-.06,12.79-.08,25.59,0,38.38a6.7,6.7,0,0,1-3.76,6.46q-16.67,9.5-33.23,19.18a6.64,6.64,0,0,1-7.45,0q-16.72-9.79-33.59-19.37a6.25,6.25,0,0,1-3.46-6.17C167.83,289.43,167.76,282.9,167.76,276.37Z"/><path class="cls-2" d="M411.88,278.16c-2,5.79,2.32,8.49,7.38,11.22,9.51,5.11,18.8,10.63,28.16,16,4,2.3,4,3.5-.15,5.87-6.37,3.62-12.82,7.1-19.22,10.68a6,6,0,0,1-6.43-.2Q404.82,312,388,302.44a6.06,6.06,0,0,1-3.36-5.84q.13-19.41,0-38.83a6.69,6.69,0,0,1,3.8-6.44c10.56-6,21.12-12,31.5-18.21,3.93-2.37,7.06-2.29,11,.13,9.77,6,19.78,11.59,29.81,17.13,3.42,1.89,4.63,4.23,5,8.2.67,7.36-1.68,12-8.55,15.05-4.83,2.14-9.09,5.54-13.71,8.21-3.19,1.84-4.88,1-4.31-2.53,1.28-7.95-2.29-12.09-9.14-15.36-3.7-1.77-6.33-2-9.43.28a20.33,20.33,0,0,1-2,1.26C411.89,269.32,411.88,269.32,411.88,278.16Z"/><path class="cls-2" d="M140.45,283.45c0,8.67,0,17.33,0,26,0,4.15-1.15,5-4.69,3-6.43-3.5-12.77-7.17-19.11-10.84a6.67,6.67,0,0,1-3.36-6.36c.08-7.33-.13-14.67.09-22,.11-3.49-.94-5.62-4.11-7.35-11.71-6.38-7.26-6.29-19.43.44-2.8,1.54-3.84,3.76-3.8,6.88.11,7.59,0,15.19.07,22.79a5.59,5.59,0,0,1-3,5.55C76.68,305.2,70.41,309,64,312.54c-3.31,1.84-4.56,1-4.56-2.82,0-17.73,0-35.47-.06-53.2a6,6,0,0,1,3.48-5.73c11.36-6.44,22.7-12.89,34-19.44a5.61,5.61,0,0,1,6.3,0q16.89,9.9,33.9,19.58a6.18,6.18,0,0,1,3.46,6.14C140.36,265.85,140.45,274.65,140.45,283.45Z"/><path class="cls-4" d="M432.76,276.84c0,3.62-4.5,8.42-7.77,8.31-3.63-.13-7.58-4.78-7.57-8.92,0-3.81,4.23-8.33,7.8-8.34S432.77,272.62,432.76,276.84Z"/><path class="cls-1" d="M303.77,277.36c.34-2.57-1.5-6,.78-7.88,3.58-2.89,7.86-4.94,11.9-7.23.4-.24,1.25.17,1.83.42a18.79,18.79,0,0,1,1.71,1c11.06,6.38,11.06,6.38,10.25,19.15-.25,4-12.42,10.8-15.92,8.83a42.42,42.42,0,0,0-3.78-2.22C305.27,287.14,301.83,283.84,303.77,277.36Z"/><path class="cls-5" d="M194.8,277.46c.8-2.74-1.42-6.27,1.39-8.25,3.88-2.73,8.05-6.93,12.37-6.64s8.87,3.7,12.28,6.87c2.9,2.71.81,7.33,1.09,11.08.13,1.74.92,4-1,5.2-4,2.53-8.26,6.62-12.41,6.64s-8.54-3.85-12.4-6.62C193.37,283.76,195.59,280.22,194.8,277.46Z"/></svg>