<svg id="Calque_1" data-name="Calque 1" xmlns="http://www.w3.org/2000/svg" viewBox="0 0 513 513"><defs><style>.cls-1{fill:#4cae50;}.cls-2{fill:#677051;}.cls-3{fill:#5d4037;}.cls-4{fill:#80c683;}.cls-5{fill:#dbecc7;}</style></defs><path class="cls-1" d="M480.45,104.8c2.63,29.07,4.45,58.11,3.09,87.38-1.81,38.89-8.61,76.72-22.49,113.07-32.79,85.9-92.56,147.48-172.87,190.28-8.63,4.6-17.57,8.51-26.6,12.28-3.75,1.56-6.77,1.08-10.16-.36A374.94,374.94,0,0,1,118.63,413Q59.17,347.41,39.56,261.1a397.44,397.44,0,0,1-9.19-111.3c1.16-20.89,1.77-41.86,5.69-62.41C42,56.46,61.05,37,91.11,28.54A629.41,629.41,0,0,1,205.44,7.3a558.3,558.3,0,0,1,109.37.8c38.26,4.06,75.92,11,112.77,21.85C449.45,36.4,465,50.65,473.8,72A113.07,113.07,0,0,1,480.45,104.8Z"/><path class="cls-2" d="M480.45,104.8Q477.14,88.39,473.8,72"/><path class="cls-3" d="M445.67,165c1.14,54-8.08,103.15-30,149.67C390,369.34,350.65,412,300.05,444.57c-11.63,7.48-23.87,13.84-36.14,20.17-4.93,2.54-9,2.3-13.71-.1-22.28-11.33-43.55-24.25-63.11-39.86-37.08-29.59-66.83-65.2-87.63-108-15.29-31.45-24.36-64.67-28.83-99.38-3.41-26.45-2.69-52.92-2-79.36a335.86,335.86,0,0,1,3.42-41.81c2.28-14.84,12-26.56,26.44-30.32,36.12-9.4,72.58-16.76,109.81-20.41a480.57,480.57,0,0,1,71.34-2.12c39.09,2,77.64,8.18,115.68,17.43q7.77,1.89,15.5,3.88c19.66,5,30.62,18,32,38.37C444.34,124.61,446.55,146.11,445.67,165Z"/><path class="cls-4" d="M244.88,408.16c-2.42-8.7-1.26-17.61-.87-26.33.36-8.05-2.06-13.56-8-19.05-25.54-23.66-43.91-51.88-51.33-86.34-8.34-38.76-1.76-75.95,13.07-112,12.36-30,30.83-56,53.76-78.88,1.54-1.54,2.83-3.54,5.37-3.65,3.05,3.64,2.2,8,2.2,12.2q.07,111,0,222.08c0,6.24.34,12.48.25,18.71a284.77,284.77,0,0,0-11.1,32c-3,10.16-.85,20.74-1.42,31.12C246.64,401.46,247.62,405.17,244.88,408.16Z"/><path class="cls-1" d="M258.21,336.31c-1.23-3.86-1.28-7.82-1.28-11.83q0-121.3,0-242.59c9.2,4.42,14.48,13,20.67,20.36,23.55,27.93,40.78,59.32,49.26,95.13,14.79,62.38.81,116.88-45.61,161.81-8.22,8-12.42,15.7-11.25,27.19.73,7.13,1.41,14.6-.66,21.79-2-1.53-2.08-3.8-2.2-6a62,62,0,0,1,0-7.34,104.5,104.5,0,0,0-7.74-48.94C258.08,342.93,256.3,339.74,258.21,336.31Z"/><path class="cls-5" d="M258.21,336.31c10.12,23,12.76,47.08,11.08,71.87a185.82,185.82,0,0,1-24.41,0c0-4.68.52-9.42,0-14-2.22-19.22,3.57-36.86,10.25-54.36C255.69,338.28,255.45,335.91,258.21,336.31Z"/></svg>