<svg id="Calque_1" data-name="Calque 1" xmlns="http://www.w3.org/2000/svg" viewBox="0 0 513 513"><defs><style>.cls-1{fill:#eed94e;}.cls-2{fill:#fdfbf0;}.cls-3{fill:#f2e278;}.cls-4{fill:#323330;}</style></defs><path class="cls-1" d="M0,512.39V.54A5.28,5.28,0,0,1,2.66.31h507c3.35,0,3-.34,3,3q0,253.23,0,506.46a8.07,8.07,0,0,1-.15,2.64,5.34,5.34,0,0,1-2.63.23H2.66A5.28,5.28,0,0,1,0,512.39Z"/><path class="cls-2" d="M512.33,512.37c0-1.06.07-2.11.07-3.17q0-252.45,0-504.92c0-.73,0-1.46,0-2.19C512.49.92,512,.48,510.82.56c-.81,0-1.62,0-2.43,0H3.68L0,.54C.13.39-.22,0,.27.05c.65,0,1.3,0,2,0Q256.4.05,510.56,0c2,0,2.37.39,2.37,2.37q-.09,254.16-.08,508.31c0,.72.56,1.66-.46,2.2Q511.91,512.67,512.33,512.37Z"/><path class="cls-3" d="M512.33,512.37l.06.51q-255.09,0-510.17,0c-.71,0-1.65.56-2.2-.46H508.19Z"/><path class="cls-4" d="M392.52,472.25c-20.76-.17-40.06-4.28-57.45-15.41A85.87,85.87,0,0,1,305.65,425c-.83-1.51-.6-2.12.86-3q17.75-10.15,35.4-20.5c1.55-.91,2.24-.79,3.2.76a61,61,0,0,0,13.83,16.26c15,11.88,31.8,14.07,49.57,7.91,8.78-3,14.61-9.35,15.33-19.19.61-8.16-2.55-14.7-9-19.72a77.69,77.69,0,0,0-15.16-8.73c-11.22-5.29-22.87-9.64-34-15.13a114.9,114.9,0,0,1-23-14.53C325.91,335.22,318.84,317,319.2,295.6c.51-30.23,19.48-53.43,49.63-60.47a95,95,0,0,1,45.37.53c19.43,4.92,33.06,17.28,43,34.22.67,1.15.38,1.62-.63,2.26Q439.23,283.22,422,294.4c-1.25.8-1.73.45-2.38-.69a43.74,43.74,0,0,0-8.42-11c-9.25-8.36-20.07-10.26-31.52-6.18C363.22,282.39,364,302.22,372,310.4a46.39,46.39,0,0,0,12.12,8.49c9.23,4.77,19,8.44,28.43,12.69,12.54,5.63,24.77,11.8,35.54,20.51,15,12.17,22.7,28,23.77,47.21.76,13.47-1,26.44-7.79,38.36-8.44,14.91-21.54,23.95-37.45,29.35A107.94,107.94,0,0,1,392.52,472.25Z"/><path class="cls-4" d="M278.38,323c0,27.87.18,55.73-.09,83.59a72.5,72.5,0,0,1-7.83,32.15c-7.33,14.53-19,24.23-34.35,29.1a93,93,0,0,1-58.9-.3C158,461,144.47,447.89,135.42,429.93c-.64-1.28-.54-1.88.73-2.64q18.07-10.83,36-21.8c1.29-.79,1.8-.68,2.54.66a91.67,91.67,0,0,0,8.85,13.38c9.63,11.91,25.62,11.31,34.91,7.15,7.11-3.18,9.77-9.6,11.1-16.72a66.56,66.56,0,0,0,.93-12.37q0-79.57-.07-159.14c0-2.54.7-3,3.09-3q21.19.17,42.4,0c2.21,0,2.65.62,2.65,2.7q-.11,42.41-.05,84.81Z"/></svg>