<svg id="Calque_1" data-name="Calque 1" xmlns="http://www.w3.org/2000/svg" viewBox="0 0 500 500"><defs><style>.cls-1{fill:#26bbec;}.cls-2{fill:#66b0c1;}.cls-3{fill:#4eacc7;}.cls-4{fill:#4da7c4;}.cls-5{fill:#58a7c4;}.cls-6{fill:#69b3c4;}.cls-7{fill:#6cb3c3;}</style></defs><path class="cls-1" d="M442,349.18c11.55-3.86,16.21-10.33,16.21-22.54,0-32.65-.08-65.3.11-97.95,0-4.44-1.18-5.53-5.56-5.52q-98.44.21-196.88.08c-3.81,0-7.6.11-10.55-3.12s-3.9-6.65-2.41-10.55a10.72,10.72,0,0,1,9-7,27.93,27.93,0,0,1,4-.06H464.3c10.07,0,13.88,3.78,13.88,13.81q0,56.22,0,112.44c0,21.74-14.23,37.73-35.92,40.49-1.76-.77-3.62-.39-5.43-.4q-84.66,0-169.33,0c-1.64,0-3.64-1.06-5,.85,0,20.86-.05,41.71,0,62.57,0,1.73-1.15,4.17,1.81,4.93,1.66,1.17,3.54.56,5.3.57,22.87.05,45.74.17,68.61-.07,5.71-.06,10.79.8,15.19,4.55,2.63,7.39,1.34,11.15-4.84,14.11-1.42.7-2.94.39-4.42.39H161.46c-1.48,0-3,.26-4.44-.36-5.18-1.06-6.71-5-6.5-9.43.2-4.15,1.66-8.08,6.81-8.74,1.75-.8,3.61-.4,5.41-.4q36.13,0,72.27-.05c1.78,0,3.66.54,5.34-.54,2.4-.34,2.09-2.18,2.08-3.82q-.08-31.92-.18-63.85c-1-1.3-2.46-.74-3.71-.74q-87.73,0-175.46,0a12.49,12.49,0,0,0-1.49.13C45.5,366.82,35.1,357.6,29.14,342.85a12.91,12.91,0,0,1-.79-5.35c-.78-1.93-.38-3.95-.39-5.92q0-120.22,0-240.45c0-4.94-.71-9.91.44-14.82,2.16-14.72,11.1-23.8,24.25-29.58a30.37,30.37,0,0,1,12.57-2.27q187.64,0,375.29,0c19.73,0,37.55,17.7,37.68,37.44.09,15-.32,30,.17,45,.19,5.91-5.1,10.21-10.38,10.21A10,10,0,0,1,458.1,127c.49-13.64.17-27.31.15-41,0-13.24-8.22-21.57-21.33-21.57q-183.66,0-367.3,0c-14.31,0-22.13,7.58-22.13,21.61q-.06,121.44,0,242.87c0,10.08,5.19,16.84,14.9,19.78,1.91,1.34,4.1,1.18,6.26,1.18q184.88,0,369.76,0C439.59,349.83,441.05,350.62,442,349.18Z"/><path class="cls-2" d="M442,349.18c.44.26,1.67.57.87,1-1.08.54-2.6.2-3.93.2q-185.87,0-371.71-.11c-1.54,0-4.21,1.81-4.9-1.54,5.29.75,10.62.49,15.93.49Z"/><path class="cls-3" d="M28.39,76.31q0,130.59,0,261.19c-1.93-2.88-1.14-6.14-1.14-9.23q-.09-118.65,0-237.29C27.18,86.07,25.93,81,28.39,76.31Z"/><path class="cls-4" d="M157,456.43q46.64-.06,93.28-.1,49.13,0,98.26.07c-1.43,1.63-3.37,1.14-5.15,1.14q-90.35,0-180.69,0C160.79,457.51,158.67,458.06,157,456.43Z"/><path class="cls-5" d="M61.59,369c1.86-1.13,3.91-.6,5.86-.6q84.92-.06,169.83,0c1.7,0,3.74-.84,5,1.24q-86.11-.06-172.23-.12C67.21,369.48,64.36,369.81,61.59,369Z"/><path class="cls-5" d="M262.47,369.74c.94-2.06,2.81-1.38,4.36-1.38q85.35,0,170.69,0c1.6,0,3.37-.53,4.74.87-2.83.1-5.65.28-8.47.28H267C265.46,369.54,264,369.67,262.47,369.74Z"/><path class="cls-6" d="M353.4,442.29c-11-6.3-23-3.66-34.68-3.88-16.43-.32-32.87-.06-49.3-.11-1.74,0-3.7.67-5.12-1.06q39.79,0,79.59-.07C348,437.16,351.33,438.54,353.4,442.29Z"/><path class="cls-7" d="M240.35,437.27c-1.1,1.45-2.7,1.05-4.15,1.05q-39.43,0-78.87-.06c1.12-1.38,2.69-1.08,4.16-1.08Q200.93,437.21,240.35,437.27Z"/></svg>