<svg xmlns="http://www.w3.org/2000/svg" viewBox="0 0 638.36 638.23"><defs><style>.cls-1{isolation:isolate;}.cls-2{fill:#299ecc;}.cls-3{fill:#2bbc43;}.cls-4,.cls-6{fill:#20c948;}.cls-4,.cls-7{mix-blend-mode:darken;}.cls-5{stroke:#000;stroke-miterlimit:10;}.cls-7{fill:#25822d;}.cls-8{fill:#fff;}.cls-9{fill:#30b242;}.cls-10{fill:#d3d3d3;}.cls-11{font-size:1.5px;font-family:LiHeiPro, LiHei Pro;}</style></defs><g class="cls-1"><g id="Calque_1" data-name="Calque 1"><g id="earth"><circle class="cls-2" cx="319.5" cy="325.73" r="285.5"/><polyline class="cls-3" points="100.09 143.06 168 177.23 112 226.23 208 250.23 236 190.23 260.19 143.06 241 107.23 195.44 68.52 172.94 80.67 160.16 88.8 143.15 101.19 126.26 115.56 112.83 128.75"/><polyline class="cls-3" points="219.44 225.72 251 279.23 289 285.23 325 303.23 366 349.23 337 374.23 312 368.23 298 411.23 252.16 411.23 198.03 411.23 195 366.23 153.15 318.47 188.13 250.23"/><polyline class="cls-3" points="294.28 41.33 354 101.23 431 129.23 446 110.23 503.18 107.15 493.62 99.46 484.87 92.97 475.1 86.32 457.57 75.78 446.23 69.83 426.84 61.09 413.12 55.94 399.66 51.64 385.1 47.8 373.05 45.24 357.62 42.75 344.27 41.33 335.66 40.68 324 40.23 312.29 40.23"/><path class="cls-3" d="M246.83,601.89,252,557.23c9.24.87,20.92.65,25-6,1.74-2.83.61-4.4,2-7,4.54-8.47,23.37-4.39,46-5,28.24-.76,26.92-7.88,42-5,19.66,3.76,23.12,16.09,45,25,16.38,6.67,31.8,6.83,42,6l-124.63,46-27.63-.54-13-1.1-14.65-2"/><polyline class="cls-3" points="584.86 220.2 548 202.23 521 204.23 503.18 222.35 530 244.23 529 285.23 476 272.23 487.4 318.47 525 341.23 566.83 325.73 578 306.23 584.86 341.23 590 349.23 602.25 349.23 604.05 349.23 604.88 333.9 605 322.82 604.7 312.62 604.21 304.32 603.27 294.16 602.09 284.83 600.02 272.38 596.53 256.43 593.09 243.85 590.91 237"/></g><g id="plane"><polygon class="cls-4" points="298.27 17.73 292.03 17.73 288.63 10.64 291.47 10.64 298.27 17.73"/><path class="cls-5" d="M336.71,20.86H332a.72.72,0,1,1,0-1.42h2.39a11.66,11.66,0,0,1,1.67.94A6,6,0,0,1,336.71,20.86Z"/><circle class="cls-5" cx="325.22" cy="20.29" r="0.28"/><circle class="cls-5" cx="323.52" cy="20.29" r="0.28"/><circle class="cls-5" cx="321.82" cy="20.29" r="0.28"/><circle class="cls-5" cx="320.11" cy="20.29" r="0.28"/><circle class="cls-5" cx="318.41" cy="20.29" r="0.28"/><circle class="cls-5" cx="316.71" cy="20.29" r="0.28"/><circle class="cls-5" cx="315.01" cy="20.29" r="0.28"/><circle class="cls-5" cx="313.31" cy="20.29" r="0.28"/><circle class="cls-5" cx="311.61" cy="20.29" r="0.28"/><circle class="cls-5" cx="309.9" cy="20.29" r="0.28"/><circle class="cls-5" cx="308.2" cy="20.29" r="0.28"/><circle class="cls-5" cx="306.5" cy="20.29" r="0.28"/><circle class="cls-5" cx="304.8" cy="20.29" r="0.28"/><circle class="cls-5" cx="303.1" cy="20.29" r="0.28"/><circle class="cls-5" cx="301.39" cy="20.29" r="0.28"/><circle class="cls-5" cx="299.69" cy="20.29" r="0.28"/><polygon class="cls-6" points="325.46 21.99 295.72 21.99 296.05 21.42 325.79 21.42 325.46 21.99"/><polygon class="cls-7" points="298.27 17.73 293.3 17.73 289.48 10.64 291.47 10.64 298.27 17.73"/><path class="cls-8" d="M348.05,24.83H299.27a7.38,7.38,0,0,1-7.38-7.38h48.79a7.31,7.31,0,0,1,4.7,1.7,7.12,7.12,0,0,1,1.32,1.42A7.34,7.34,0,0,1,348.05,24.83Z"/><circle cx="299.13" cy="19.72" r="0.57"/><circle cx="300.83" cy="19.72" r="0.57"/><circle cx="302.53" cy="19.72" r="0.57"/><circle cx="304.23" cy="19.72" r="0.57"/><circle cx="305.93" cy="19.72" r="0.57"/><circle cx="307.63" cy="19.72" r="0.57"/><circle cx="309.34" cy="19.72" r="0.57"/><circle cx="311.04" cy="19.72" r="0.57"/><circle cx="312.74" cy="19.72" r="0.57"/><circle cx="314.44" cy="19.72" r="0.57"/><circle cx="316.14" cy="19.72" r="0.57"/><circle cx="317.85" cy="19.72" r="0.57"/><circle cx="319.55" cy="19.72" r="0.57"/><circle cx="321.25" cy="19.72" r="0.57"/><circle cx="322.95" cy="19.72" r="0.57"/><circle cx="324.65" cy="19.72" r="0.57"/><circle cx="326.36" cy="19.72" r="0.57"/><circle cx="328.06" cy="19.72" r="0.57"/><circle cx="329.76" cy="19.72" r="0.57"/><circle cx="331.46" cy="19.72" r="0.57"/><circle cx="333.16" cy="19.72" r="0.57"/><polygon class="cls-9" points="336.57 21.42 297.71 21.42 298.65 20.86 337.13 20.86 336.57 21.42"/><path d="M346.7,20.57h-4a.21.21,0,0,1-.21-.21V19.09a.19.19,0,0,1,.22-.19,19.76,19.76,0,0,0,2.64.25A7.12,7.12,0,0,1,346.7,20.57Z"/><polygon class="cls-10" points="303.1 28.23 306.68 28.23 327.49 21.99 317.44 21.99 303.1 28.23"/><path class="cls-9" d="M347,23.72c-1.73-.4-5.19.92-7,.54s-2.11-2.48-4-2.84l1.13-.56c1.59.38,2.35,2.83,4,2.83,2.27,0,4.34-.84,6.12-.41Z"/><text class="cls-11" transform="translate(329.76 23.32)">ALF FLY</text></g></g></g></svg>