<svg id="Calque_1" data-name="Calque 1" xmlns="http://www.w3.org/2000/svg" viewBox="0 0 513 513"><defs><style>.cls-1{fill:#61dafb;}</style></defs><path class="cls-1" d="M506,257.51c0-33-41.31-64.25-104.66-83.64C416,109.31,409.47,58,380.84,41.5a44.58,44.58,0,0,0-22.74-5.68V57.75s9.25.92,12.41,2.65c13.85,7.95,19.86,38.2,15.18,77.12-1.12,9.57-3,19.66-5.2,29.94a494.23,494.23,0,0,0-64.68-11.1,495.84,495.84,0,0,0-42.38-50.93c33.21-30.87,85.69-47.78,85.69-47.78V34.91h0c-28,0-64.75,20-101.86,54.65C220.14,55.1,183.43,35.32,155.39,35.32V58.76c21,0,52.18,16.75,85.27,47.3a480.24,480.24,0,0,0-41.93,50.65,475.35,475.35,0,0,0-64.56,11.17c-2.33-10.15-4.06-20-5.27-29.44C124.13,99.67,130,69.52,143.72,61.5c3-1.83,7-2.64,11.67-2.64V36.22h0a45.23,45.23,0,0,0-22.94,5.69C103.93,58.35,97.53,109.62,112.25,174,49.11,193.46,8,224.62,8,257.51s41.31,64.26,104.66,83.65c-14.62,64.56-8.13,115.92,20.5,132.36,6.6,3.86,14.31,5.69,22.84,5.69,27.91,0,64.46-19.9,101.41-54.41,36.95,34.31,73.49,54,101.4,54a45.32,45.32,0,0,0,22.94-5.68c28.53-16.45,34.92-67.71,20.2-132.07C464.89,321.67,506,290.4,506,257.51ZM374.69,189.57c-3.77,13.14-8.46,26.69-13.75,40.24-4.18-8.15-8.56-16.3-13.35-24.45s-9.68-16.1-14.67-23.84C347.39,183.66,361.34,186.31,374.69,189.57ZM328,298.06c-7.94,13.75-16.09,26.79-24.55,38.91-15.17,1.32-30.56,2-46,2s-30.76-.72-45.84-1.94C203.15,325,194.89,312,187,298.36c-7.74-13.34-14.77-26.89-21.19-40.54,6.32-13.65,13.45-27.3,21.09-40.65,7.94-13.75,16.09-26.79,24.55-38.91,15.17-1.32,30.56-2,46-2s30.76.72,45.84,1.94c8.45,12.12,16.71,25.06,24.65,38.71,7.74,13.34,14.77,26.89,21.19,40.54C342.7,271.06,335.67,284.71,328,298.06Zm32.91-13.25c5.5,13.65,10.18,27.3,14.05,40.55-13.34,3.25-27.4,6-42,8.14,5-7.84,10-15.89,14.67-24.14S356.76,293,360.94,284.81ZM257.64,393.5a421.88,421.88,0,0,1-28.31-32.59c9.16.4,18.53.71,28,.71s19.05-.2,28.32-.71A397.83,397.83,0,0,1,257.64,393.5Zm-75.78-60c-14.47-2.13-28.42-4.78-41.77-8,3.77-13.14,8.46-26.69,13.75-40.24,4.18,8.15,8.56,16.3,13.35,24.45S176.86,325.76,181.86,333.5Zm75.27-212a418.14,418.14,0,0,1,28.32,32.6c-9.16-.41-18.54-.71-28-.71s-19.05.2-28.32.71A398.24,398.24,0,0,1,257.13,121.52Zm-75.38,60c-5,7.84-10,15.89-14.66,24.14S158,222,153.84,230.11c-5.5-13.65-10.18-27.3-14.05-40.54C153.13,186.41,167.19,183.66,181.75,181.52ZM89.57,309.06c-36.06-15.39-59.39-35.55-59.39-51.55S53.51,221.25,89.57,206c8.76-3.77,18.33-7.13,28.21-10.29a490.15,490.15,0,0,0,22.92,62,481.08,481.08,0,0,0-22.61,61.73C108,316.29,98.43,312.83,89.57,309.06Zm54.8,145.56c-13.85-7.94-19.86-38.2-15.18-77.11,1.12-9.58,3-19.66,5.2-29.95a494.19,494.19,0,0,0,64.68,11.11,496.92,496.92,0,0,0,42.38,50.93c-33.21,30.86-64.38,47.77-85.57,47.77A24.33,24.33,0,0,1,144.37,454.62ZM386,377c4.79,38.91-1.12,69.17-14.87,77.21-3.05,1.84-7,2.65-11.71,2.65-21.09,0-52.36-16.8-85.57-47.47a480.56,480.56,0,0,0,42.07-50.83,475.4,475.4,0,0,0,64.79-11.2A285.9,285.9,0,0,1,386,377Zm39.22-67.94c-8.76,3.77-18.33,7.13-28.21,10.29a490.15,490.15,0,0,0-22.92-62,482.18,482.18,0,0,0,22.61-61.73c10.08,3.16,19.66,6.62,28.62,10.39,36.06,15.38,59.39,35.55,59.39,51.54S461.27,293.78,425.21,309.06Z"/><circle class="cls-1" cx="257.34" cy="257.51" r="46.55"/></svg>